{
  "source": "C:\\Users\\Peter\\Desktop\\stuff\\MIUN\\quantitative_research\\video_compression\\videos\\UVG\\Beauty_1920x1080_120fps_420_8bit_YUV.y4m",
  "output": "C:\\Users\\Peter\\Desktop\\stuff\\MIUN\\quantitative_research\\video_compression\\compressed_videos\\UVG\\av1\\4\\Beauty_1920x1080_120fps_420_8bit_YUV_av1.mkv",
  "codec": "av1",
  "ok": "[yuv4mpegpipe @ 000001dc97355300] Stream #0: not enough frames to estimate rate; consider increasing probesize\nInput #0, yuv4mpegpipe, from 'C:\\Users\\Peter\\Desktop\\stuff\\MIUN\\quantitative_research\\video_compression\\videos\\UVG\\Beauty_1920x1080_120fps_420_8bit_YUV.y4m':\n  Duration: 00:00:05.00, start: 0.000000, bitrate: 2985989 kb/s\n  Stream #0:0: Video: rawvideo (I420 / 0x30323449), yuv420p(progressive), 1920x1080, 120 fps, 120 tbr, 120 tbn\n[out#0/matroska @ 000001dc97359100] Codec AVOption b:a (set bitrate (in bits/s)) has not been used for any stream. The most likely reason is either wrong type (e.g. a video option with no video streams) or that it is a private option of some decoder which was not actually used for any stream.\nStream mapping:\n  Stream #0:0 -> #0:0 (rawvideo (native) -> av1 (libsvtav1))\nPress [q] to stop, [?] for help\nSvt[info]: -------------------------------------------\nSvt[info]: SVT [version]:\tSVT-AV1 Encoder Lib v3.1.0-19-g6ecfe8ec\nSvt[info]: SVT [build]  :\tGCC 15.2.0\t 64 bit\nSvt[info]: LIB Build date: Aug 17 2025 11:37:13\nSvt[info]: -------------------------------------------\n[libsvtav1 @ 000001dc9735c140] Specified chroma sample location center is unsupported on the AV1 bit stream level. Usage of a container that allows passing this information - such as Matroska - is recommended.\nSvt[info]: Level of Parallelism: 5\nSvt[info]: Number of PPCS 93\nSvt[info]: [asm level on system : up to avx2]\nSvt[info]: [asm level selected : up to avx2]\nSvt[info]: -------------------------------------------\nSvt[info]: SVT [config]: main profile\ttier (auto)\tlevel (auto)\nSvt[info]: SVT [config]: width / height / fps numerator / fps denominator \t\t: 1920 / 1080 / 120 / 1\nSvt[info]: SVT [config]: bit-depth / color format \t\t\t\t\t: 8 / YUV420\nSvt[info]: SVT [config]: preset / tune / pred struct \t\t\t\t\t: 4 / PSNR / random access\nSvt[info]: SVT [config]: gop size / mini-gop size / key-frame type \t\t\t: 641 / 16 / key frame\nSvt[info]: SVT [config]: BRC mode / target bitrate (kbps)\t\t\t\t: VBR / 4000 \nSvt[info]: SVT [config]: AQ mode / Variance Boost \t\t\t\t\t: 2 / 0\nSvt[info]: SVT [config]: sharpness / luminance-based QP bias \t\t\t\t: 0 / 0\nSvt[info]: SVT [config]: QP scale compress strength \t\t\t\t\t: 0\nSvt[info]: -------------------------------------------\nOutput #0, matroska, to 'C:\\Users\\Peter\\Desktop\\stuff\\MIUN\\quantitative_research\\video_compression\\compressed_videos\\UVG\\av1\\4\\Beauty_1920x1080_120fps_420_8bit_YUV_av1.mkv':\n  Metadata:\n    encoder         : Lavf62.3.100\n  Stream #0:0: Video: av1 (AV01 / 0x31305641), yuv420p(tv, progressive), 1920x1080, q=2-31, 4000 kb/s, 120 fps, 1k tbn\n    Metadata:\n      encoder         : Lavc62.11.100 libsvtav1\n    Side data:\n      cpb: bitrate max/min/avg: 0/0/4000000 buffer size: 4000000 vbv_delay: N/A\nframe=    0 fps=0.0 q=0.0 size=       0KiB time=N/A bitrate=N/A speed=N/A elapsed=0:00:00.51    \nframe=    0 fps=0.0 q=0.0 size=       0KiB time=N/A bitrate=N/A speed=N/A elapsed=0:00:01.27    \nframe=    0 fps=0.0 q=0.0 size=       0KiB time=N/A bitrate=N/A speed=N/A elapsed=0:00:01.84    \nframe=    0 fps=0.0 q=0.0 size=       0KiB time=N/A bitrate=N/A speed=N/A elapsed=0:00:02.36    \nframe=    0 fps=0.0 q=0.0 size=       0KiB time=N/A bitrate=N/A speed=N/A elapsed=0:00:02.96    \nframe=    0 fps=0.0 q=0.0 size=       0KiB time=N/A bitrate=N/A speed=N/A elapsed=0:00:03.50    \nframe=    0 fps=0.0 q=0.0 size=       0KiB time=N/A bitrate=N/A speed=N/A elapsed=0:00:04.04    \nframe=    0 fps=0.0 q=0.0 size=       0KiB time=N/A bitrate=N/A speed=N/A elapsed=0:00:04.55    \nframe=    0 fps=0.0 q=0.0 size=       0KiB time=N/A bitrate=N/A speed=N/A elapsed=0:00:05.30    \nframe=    0 fps=0.0 q=0.0 size=       0KiB time=N/A bitrate=N/A speed=N/A elapsed=0:00:06.01    \nframe=    0 fps=0.0 q=0.0 size=       0KiB time=N/A bitrate=N/A speed=N/A elapsed=0:00:06.70    \nframe=    0 fps=0.0 q=0.0 size=       0KiB time=N/A bitrate=N/A speed=N/A elapsed=0:00:07.21    \nframe=    1 fps=0.1 q=24.0 size=       1KiB time=00:00:00.00 bitrate=N/A speed=   0x elapsed=0:00:07.73    \nframe=    1 fps=0.1 q=24.0 size=       1KiB time=00:00:00.00 bitrate=N/A speed=   0x elapsed=0:00:08.25    \nframe=    1 fps=0.1 q=24.0 size=       1KiB time=00:00:00.00 bitrate=N/A speed=   0x elapsed=0:00:08.76    \nframe=    1 fps=0.1 q=24.0 size=       1KiB time=00:00:00.00 bitrate=N/A speed=   0x elapsed=0:00:09.27    \nframe=    1 fps=0.1 q=24.0 size=       1KiB time=00:00:00.00 bitrate=N/A speed=   0x elapsed=0:00:09.80    \nframe=    1 fps=0.1 q=24.0 size=       1KiB time=00:00:00.00 bitrate=N/A speed=   0x elapsed=0:00:10.30    \nframe=    1 fps=0.1 q=24.0 size=       1KiB time=00:00:00.00 bitrate=N/A speed=   0x elapsed=0:00:10.82    \nframe=    2 fps=0.2 q=50.0 size=       1KiB time=00:00:00.00 bitrate= 537.6kbits/s speed=0.000735x elapsed=0:00:11.34    \nframe=    3 fps=0.3 q=47.0 size=       1KiB time=00:00:00.01 bitrate= 268.8kbits/s speed=0.00141x elapsed=0:00:11.86    \nframe=    4 fps=0.3 q=50.0 size=       1KiB time=00:00:00.02 bitrate= 179.2kbits/s speed=0.00202x elapsed=0:00:12.37    \nframe=    6 fps=0.5 q=46.0 size=       1KiB time=00:00:00.04 bitrate= 107.5kbits/s speed=0.00323x elapsed=0:00:12.88    \nframe=    7 fps=0.5 q=46.0 size=       1KiB time=00:00:00.05 bitrate=  89.6kbits/s speed=0.00373x elapsed=0:00:13.41    \nframe=    8 fps=0.6 q=45.0 size=       1KiB time=00:00:00.05 bitrate=  76.8kbits/s speed=0.00419x elapsed=0:00:13.91    \nframe=    8 fps=0.6 q=45.0 size=       1KiB time=00:00:00.05 bitrate=  76.8kbits/s speed=0.00404x elapsed=0:00:14.44    \nframe=    8 fps=0.5 q=45.0 size=       1KiB time=00:00:00.05 bitrate=  76.8kbits/s speed=0.0039x elapsed=0:00:14.94    \nframe=    9 fps=0.6 q=42.0 size=       1KiB time=00:00:00.06 bitrate=  67.2kbits/s speed=0.00431x elapsed=0:00:15.46    \nframe=   10 fps=0.6 q=44.0 size=       1KiB time=00:00:00.07 bitrate=  59.7kbits/s speed=0.00469x elapsed=0:00:15.97    \nframe=   12 fps=0.7 q=44.0 size=       1KiB time=00:00:00.09 bitrate=  48.9kbits/s speed=0.00556x elapsed=0:00:16.49    \nframe=   12 fps=0.7 q=44.0 size=       1KiB time=00:00:00.09 bitrate=  48.9kbits/s speed=0.00539x elapsed=0:00:17.01    \nframe=   12 fps=0.7 q=44.0 size=       1KiB time=00:00:00.09 bitrate=  48.9kbits/s speed=0.00523x elapsed=0:00:17.52    \nframe=   13 fps=0.7 q=43.0 size=       1KiB time=00:00:00.10 bitrate=  44.8kbits/s speed=0.00554x elapsed=0:00:18.04    \nframe=   13 fps=0.7 q=43.0 size=       1KiB time=00:00:00.10 bitrate=  44.8kbits/s speed=0.00539x elapsed=0:00:18.56    \nframe=   14 fps=0.7 q=42.0 size=       1KiB time=00:00:00.10 bitrate=  41.4kbits/s speed=0.00568x elapsed=0:00:19.07    \nframe=   16 fps=0.8 q=42.0 size=       1KiB time=00:00:00.12 bitrate=  35.8kbits/s speed=0.00638x elapsed=0:00:19.60    \nframe=   16 fps=0.8 q=42.0 size=       1KiB time=00:00:00.12 bitrate=  35.8kbits/s speed=0.00621x elapsed=0:00:20.11    \nframe=   17 fps=0.8 q=30.0 size=       1KiB time=00:00:00.13 bitrate=  33.6kbits/s speed=0.00646x elapsed=0:00:20.63    \nframe=   17 fps=0.8 q=30.0 size=       1KiB time=00:00:00.13 bitrate=  33.6kbits/s speed=0.00631x elapsed=0:00:21.13    \nframe=   18 fps=0.8 q=41.0 size=       1KiB time=00:00:00.14 bitrate=  31.6kbits/s speed=0.00654x elapsed=0:00:21.65    \nframe=   18 fps=0.8 q=41.0 size=       1KiB time=00:00:00.14 bitrate=  31.6kbits/s speed=0.00639x elapsed=0:00:22.16    \nframe=   19 fps=0.8 q=42.0 size=       1KiB time=00:00:00.15 bitrate=  29.9kbits/s speed=0.00661x elapsed=0:00:22.68    \nframe=   19 fps=0.8 q=42.0 size=       1KiB time=00:00:00.15 bitrate=  29.9kbits/s speed=0.00646x elapsed=0:00:23.20    \nframe=   20 fps=0.8 q=40.0 size=       1KiB time=00:00:00.15 bitrate=  28.3kbits/s speed=0.00668x elapsed=0:00:23.71    \nframe=   21 fps=0.9 q=44.0 size=       1KiB time=00:00:00.16 bitrate=  26.9kbits/s speed=0.00688x elapsed=0:00:24.23    \nframe=   21 fps=0.8 q=44.0 size=       1KiB time=00:00:00.16 bitrate=  26.9kbits/s speed=0.00674x elapsed=0:00:24.74    \nframe=   22 fps=0.9 q=40.0 size=       1KiB time=00:00:00.17 bitrate=  25.6kbits/s speed=0.00693x elapsed=0:00:25.26    \nframe=   22 fps=0.9 q=40.0 size=       1KiB time=00:00:00.17 bitrate=  25.6kbits/s speed=0.00679x elapsed=0:00:25.77    \nframe=   22 fps=0.8 q=40.0 size=       1KiB time=00:00:00.17 bitrate=  25.6kbits/s speed=0.00665x elapsed=0:00:26.29    \nframe=   22 fps=0.8 q=40.0 size=       1KiB time=00:00:00.17 bitrate=  25.6kbits/s speed=0.00653x elapsed=0:00:26.81    \nframe=   23 fps=0.8 q=42.0 size=       1KiB time=00:00:00.18 bitrate=  24.4kbits/s speed=0.00671x elapsed=0:00:27.32    \nframe=   23 fps=0.8 q=42.0 size=       1KiB time=00:00:00.18 bitrate=  24.4kbits/s speed=0.00659x elapsed=0:00:27.83    \nframe=   23 fps=0.8 q=42.0 size=       1KiB time=00:00:00.18 bitrate=  24.4kbits/s speed=0.00647x elapsed=0:00:28.35    \nframe=   24 fps=0.8 q=40.0 size=       1KiB time=00:00:00.19 bitrate=  23.4kbits/s speed=0.00664x elapsed=0:00:28.87    \nframe=   24 fps=0.8 q=40.0 size=       1KiB time=00:00:00.19 bitrate=  23.4kbits/s speed=0.00652x elapsed=0:00:29.38    \nframe=   26 fps=0.9 q=39.0 size=       1KiB time=00:00:00.20 bitrate=  21.5kbits/s speed=0.00696x elapsed=0:00:29.91    \nframe=   27 fps=0.9 q=43.0 size=       1KiB time=00:00:00.21 bitrate=  20.7kbits/s speed=0.00712x elapsed=0:00:30.41    \nframe=   27 fps=0.9 q=43.0 size=       1KiB time=00:00:00.21 bitrate=  20.7kbits/s speed=0.007x elapsed=0:00:30.93    \nframe=   28 fps=0.9 q=39.0 size=       1KiB time=00:00:00.22 bitrate=  19.9kbits/s speed=0.00715x elapsed=0:00:31.46    \nframe=   28 fps=0.9 q=39.0 size=       1KiB time=00:00:00.22 bitrate=  19.9kbits/s speed=0.00704x elapsed=0:00:31.97    \nframe=   30 fps=0.9 q=39.0 size=       1KiB time=00:00:00.24 bitrate=  18.5kbits/s speed=0.00744x elapsed=0:00:32.49    \nframe=   31 fps=0.9 q=43.0 size=       1KiB time=00:00:00.25 bitrate=  17.9kbits/s speed=0.00758x elapsed=0:00:32.99    \nframe=   32 fps=1.0 q=39.0 size=       1KiB time=00:00:00.25 bitrate=  17.3kbits/s speed=0.00771x elapsed=0:00:33.52    \nframe=   34 fps=1.0 q=39.0 size=       1KiB time=00:00:00.27 bitrate=  16.3kbits/s speed=0.00808x elapsed=0:00:34.03    \nframe=   35 fps=1.0 q=42.0 size=       1KiB time=00:00:00.28 bitrate=  15.8kbits/s speed=0.0082x elapsed=0:00:34.54    \nframe=   35 fps=1.0 q=42.0 size=       1KiB time=00:00:00.28 bitrate=  15.8kbits/s speed=0.00808x elapsed=0:00:35.06    \nframe=   36 fps=1.0 q=38.0 size=       1KiB time=00:00:00.29 bitrate=  15.4kbits/s speed=0.0082x elapsed=0:00:35.58    \nframe=   36 fps=1.0 q=38.0 size=       1KiB time=00:00:00.29 bitrate=  15.4kbits/s speed=0.00808x elapsed=0:00:36.08    \nframe=   36 fps=1.0 q=38.0 size=       1KiB time=00:00:00.29 bitrate=  15.4kbits/s speed=0.00797x elapsed=0:00:36.60    \nframe=   37 fps=1.0 q=43.0 size=       1KiB time=00:00:00.30 bitrate=  14.9kbits/s speed=0.00808x elapsed=0:00:37.11    \nframe=   37 fps=1.0 q=43.0 size=       1KiB time=00:00:00.30 bitrate=  14.9kbits/s speed=0.00797x elapsed=0:00:37.64    \nframe=   38 fps=1.0 q=37.0 size=       1KiB time=00:00:00.30 bitrate=  14.5kbits/s speed=0.00808x elapsed=0:00:38.15    \nframe=   38 fps=1.0 q=37.0 size=       1KiB time=00:00:00.30 bitrate=  14.5kbits/s speed=0.00797x elapsed=0:00:38.67    \nframe=   38 fps=1.0 q=37.0 size=       1KiB time=00:00:00.30 bitrate=  14.5kbits/s speed=0.00787x elapsed=0:00:39.18    \nframe=   39 fps=1.0 q=42.0 size=       1KiB time=00:00:00.31 bitrate=  14.1kbits/s speed=0.00798x elapsed=0:00:39.70    \nframe=   39 fps=1.0 q=42.0 size=       1KiB time=00:00:00.31 bitrate=  14.1kbits/s speed=0.00787x elapsed=0:00:40.22    \nframe=   39 fps=1.0 q=42.0 size=       1KiB time=00:00:00.31 bitrate=  14.1kbits/s speed=0.00777x elapsed=0:00:40.73    \nframe=   40 fps=1.0 q=38.0 size=       1KiB time=00:00:00.32 bitrate=  13.8kbits/s speed=0.00788x elapsed=0:00:41.25    \nframe=   40 fps=1.0 q=38.0 size=       1KiB time=00:00:00.32 bitrate=  13.8kbits/s speed=0.00778x elapsed=0:00:41.76    \nframe=   42 fps=1.0 q=37.0 size=       1KiB time=00:00:00.34 bitrate=  13.1kbits/s speed=0.00808x elapsed=0:00:42.28    \nframe=   42 fps=1.0 q=37.0 size=       1KiB time=00:00:00.34 bitrate=  13.1kbits/s speed=0.00798x elapsed=0:00:42.80    \nframe=   43 fps=1.0 q=41.0 size=       1KiB time=00:00:00.35 bitrate=  12.8kbits/s speed=0.00808x elapsed=0:00:43.30    \nframe=   43 fps=1.0 q=41.0 size=       1KiB time=00:00:00.35 bitrate=  12.8kbits/s speed=0.00799x elapsed=0:00:43.82    \nframe=   44 fps=1.0 q=37.0 size=       1KiB time=00:00:00.35 bitrate=  12.5kbits/s speed=0.00808x elapsed=0:00:44.34    \nframe=   45 fps=1.0 q=41.0 size=       1KiB time=00:00:00.36 bitrate=  12.2kbits/s speed=0.00817x elapsed=0:00:44.85    \nframe=   47 fps=1.0 q=42.0 size=       1KiB time=00:00:00.38 bitrate=  11.7kbits/s speed=0.00845x elapsed=0:00:45.37    \nframe=   48 fps=1.0 q=38.0 size=       1KiB time=00:00:00.39 bitrate=  11.4kbits/s speed=0.00853x elapsed=0:00:45.89    \nframe=   48 fps=1.0 q=38.0 size=       1KiB time=00:00:00.39 bitrate=  11.4kbits/s speed=0.00844x elapsed=0:00:46.40    \nframe=   49 fps=1.0 q=26.0 size=       1KiB time=00:00:00.40 bitrate=  11.2kbits/s speed=0.00852x elapsed=0:00:46.92    \nframe=   49 fps=1.0 q=26.0 size=       1KiB time=00:00:00.40 bitrate=  11.2kbits/s speed=0.00843x elapsed=0:00:47.44    \nframe=   50 fps=1.0 q=39.0 size=       1KiB time=00:00:00.40 bitrate=  11.0kbits/s speed=0.00852x elapsed=0:00:47.94    \nframe=   51 fps=1.1 q=43.0 size=       1KiB time=00:00:00.41 bitrate=  10.8kbits/s speed=0.0086x elapsed=0:00:48.47    \nframe=   51 fps=1.0 q=43.0 size=       1KiB time=00:00:00.41 bitrate=  10.8kbits/s speed=0.0085x elapsed=0:00:48.99    \nframe=   52 fps=1.1 q=39.0 size=       1KiB time=00:00:00.42 bitrate=  10.5kbits/s speed=0.00859x elapsed=0:00:49.49    \nframe=   52 fps=1.0 q=39.0 size=       1KiB time=00:00:00.42 bitrate=  10.5kbits/s speed=0.0085x elapsed=0:00:50.01    \nframe=   53 fps=1.0 q=43.0 size=       1KiB time=00:00:00.43 bitrate=  10.3kbits/s speed=0.00857x elapsed=0:00:50.53    \nframe=   54 fps=1.1 q=39.0 size=       1KiB time=00:00:00.44 bitrate=  10.1kbits/s speed=0.00865x elapsed=0:00:51.04    \nframe=   54 fps=1.0 q=39.0 size=       1KiB time=00:00:00.44 bitrate=  10.1kbits/s speed=0.00857x elapsed=0:00:51.56    \nframe=   54 fps=1.0 q=39.0 size=       1KiB time=00:00:00.44 bitrate=  10.1kbits/s speed=0.00848x elapsed=0:00:52.08    \nframe=   55 fps=1.0 q=43.0 size=       1KiB time=00:00:00.45 bitrate=  10.0kbits/s speed=0.00856x elapsed=0:00:52.58    \nframe=   55 fps=1.0 q=43.0 size=       1KiB time=00:00:00.45 bitrate=  10.0kbits/s speed=0.00847x elapsed=0:00:53.11    \nframe=   55 fps=1.0 q=43.0 size=       1KiB time=00:00:00.45 bitrate=  10.0kbits/s speed=0.00839x elapsed=0:00:53.62    \nframe=   56 fps=1.0 q=38.0 size=       1KiB time=00:00:00.45 bitrate=   9.8kbits/s speed=0.00846x elapsed=0:00:54.14    \nframe=   58 fps=1.1 q=38.0 size=       1KiB time=00:00:00.47 bitrate=   9.4kbits/s speed=0.00869x elapsed=0:00:54.66    \nframe=   59 fps=1.1 q=42.0 size=       1KiB time=00:00:00.48 bitrate=   9.3kbits/s speed=0.00876x elapsed=0:00:55.18    \nframe=   59 fps=1.1 q=42.0 size=       1KiB time=00:00:00.48 bitrate=   9.3kbits/s speed=0.00867x elapsed=0:00:55.71    \nframe=   59 fps=1.0 q=42.0 size=       1KiB time=00:00:00.48 bitrate=   9.3kbits/s speed=0.0086x elapsed=0:00:56.23    \nframe=   60 fps=1.1 q=37.0 size=       1KiB time=00:00:00.49 bitrate=   9.1kbits/s speed=0.00866x elapsed=0:00:56.75    \nframe=   61 fps=1.1 q=41.0 size=       1KiB time=00:00:00.50 bitrate=   9.0kbits/s speed=0.00873x elapsed=0:00:57.28    \nframe=   63 fps=1.1 q=42.0 size=       1KiB time=00:00:00.51 bitrate=   8.7kbits/s speed=0.00894x elapsed=0:00:57.80    \nframe=   63 fps=1.1 q=42.0 size=       1KiB time=00:00:00.51 bitrate=   8.7kbits/s speed=0.00886x elapsed=0:00:58.31    \nframe=   64 fps=1.1 q=37.0 size=       1KiB time=00:00:00.52 bitrate=   8.5kbits/s speed=0.00892x elapsed=0:00:58.83    \nframe=   65 fps=1.1 q=20.0 size=       1KiB time=00:00:00.53 bitrate=   8.4kbits/s speed=0.00898x elapsed=0:00:59.35    \nframe=   66 fps=1.1 q=35.0 size=       1KiB time=00:00:00.54 bitrate=   8.3kbits/s speed=0.00905x elapsed=0:00:59.87    \nframe=   66 fps=1.1 q=35.0 size=       1KiB time=00:00:00.54 bitrate=   8.3kbits/s speed=0.00897x elapsed=0:01:00.38    \nframe=   67 fps=1.1 q=39.0 size=       1KiB time=00:00:00.55 bitrate=   8.1kbits/s speed=0.00903x elapsed=0:01:00.90    \nframe=   67 fps=1.1 q=39.0 size=       1KiB time=00:00:00.55 bitrate=   8.1kbits/s speed=0.00895x elapsed=0:01:01.44    \nframe=   68 fps=1.1 q=34.0 size=       1KiB time=00:00:00.55 bitrate=   8.0kbits/s speed=0.00901x elapsed=0:01:01.96    \nframe=   69 fps=1.1 q=42.0 size=       1KiB time=00:00:00.56 bitrate=   7.9kbits/s speed=0.00907x elapsed=0:01:02.48    \nframe=   70 fps=1.1 q=35.0 size=       1KiB time=00:00:00.57 bitrate=   7.8kbits/s speed=0.00913x elapsed=0:01:02.99    \nframe=   70 fps=1.1 q=35.0 size=       1KiB time=00:00:00.57 bitrate=   7.8kbits/s speed=0.00905x elapsed=0:01:03.51    \nframe=   70 fps=1.1 q=35.0 size=       1KiB time=00:00:00.57 bitrate=   7.8kbits/s speed=0.00898x elapsed=0:01:04.03    \nframe=   71 fps=1.1 q=39.0 size=       1KiB time=00:00:00.58 bitrate=   7.7kbits/s speed=0.00904x elapsed=0:01:04.54    \nframe=   71 fps=1.1 q=39.0 size=       1KiB time=00:00:00.58 bitrate=   7.7kbits/s speed=0.00897x elapsed=0:01:05.05    \nframe=   72 fps=1.1 q=35.0 size=       1KiB time=00:00:00.59 bitrate=   7.6kbits/s speed=0.00902x elapsed=0:01:05.57    \nframe=   72 fps=1.1 q=35.0 size=       1KiB time=00:00:00.59 bitrate=   7.6kbits/s speed=0.00895x elapsed=0:01:06.08    \nframe=   73 fps=1.1 q=31.0 size=       1KiB time=00:00:00.60 bitrate=   7.5kbits/s speed=0.009x elapsed=0:01:06.68    \nframe=   74 fps=1.1 q=34.0 size=       1KiB time=00:00:00.60 bitrate=   7.4kbits/s speed=0.00905x elapsed=0:01:07.20    \nframe=   75 fps=1.1 q=39.0 size=       1KiB time=00:00:00.61 bitrate=   7.3kbits/s speed=0.0091x elapsed=0:01:07.76    \nframe=   75 fps=1.1 q=39.0 size=       1KiB time=00:00:00.61 bitrate=   7.3kbits/s speed=0.00903x elapsed=0:01:08.28    \nframe=   76 fps=1.1 q=35.0 size=       1KiB time=00:00:00.62 bitrate=   7.2kbits/s speed=0.00908x elapsed=0:01:08.82    \nframe=   79 fps=1.1 q=40.0 size=       1KiB time=00:00:00.64 bitrate=   7.0kbits/s speed=0.00925x elapsed=0:01:09.36    \nframe=   79 fps=1.1 q=40.0 size=       1KiB time=00:00:00.65 bitrate=   6.9kbits/s speed=0.00929x elapsed=0:01:09.94    \nframe=   81 fps=1.1 q=19.0 size=       1KiB time=00:00:00.66 bitrate=   6.7kbits/s speed=0.00946x elapsed=0:01:10.46    \nframe=   82 fps=1.2 q=36.0 size=       1KiB time=00:00:00.67 bitrate=   6.6kbits/s speed=0.00951x elapsed=0:01:11.00    \nframe=   83 fps=1.2 q=40.0 size=       1KiB time=00:00:00.68 bitrate=   6.6kbits/s speed=0.00955x elapsed=0:01:11.53    \nframe=   84 fps=1.2 q=36.0 size=       1KiB time=00:00:00.69 bitrate=   6.5kbits/s speed=0.0096x elapsed=0:01:12.05    \nframe=   85 fps=1.2 q=42.0 size=       1KiB time=00:00:00.70 bitrate=   6.4kbits/s speed=0.00965x elapsed=0:01:12.55    \nframe=   86 fps=1.2 q=37.0 size=       1KiB time=00:00:00.70 bitrate=   6.3kbits/s speed=0.00969x elapsed=0:01:13.08    \nframe=   87 fps=1.2 q=40.0 size=       1KiB time=00:00:00.71 bitrate=   6.3kbits/s speed=0.00974x elapsed=0:01:13.58    \nframe=   87 fps=1.2 q=40.0 size=       1KiB time=00:00:00.71 bitrate=   6.3kbits/s speed=0.00967x elapsed=0:01:14.11    \nframe=   89 fps=1.2 q=30.0 size=       1KiB time=00:00:00.73 bitrate=   6.1kbits/s speed=0.00983x elapsed=0:01:14.62    \nframe=   89 fps=1.2 q=30.0 size=       1KiB time=00:00:00.73 bitrate=   6.1kbits/s speed=0.00976x elapsed=0:01:15.14    \nframe=   91 fps=1.2 q=40.0 size=       1KiB time=00:00:00.75 bitrate=   6.0kbits/s speed=0.00991x elapsed=0:01:15.65    \nframe=   92 fps=1.2 q=36.0 size=       1KiB time=00:00:00.75 bitrate=   5.9kbits/s speed=0.00996x elapsed=0:01:16.17    \nframe=   93 fps=1.2 q=41.0 size=       1KiB time=00:00:00.76 bitrate=   5.8kbits/s speed=0.01x elapsed=0:01:16.69    \nframe=   95 fps=1.2 q=39.0 size=       1KiB time=00:00:00.78 bitrate=   5.7kbits/s speed=0.0101x elapsed=0:01:17.21    \nframe=   96 fps=1.2 q=36.0 size=       1KiB time=00:00:00.79 bitrate=   5.7kbits/s speed=0.0102x elapsed=0:01:17.73    \nframe=   96 fps=1.2 q=36.0 size=       1KiB time=00:00:00.79 bitrate=   5.7kbits/s speed=0.0101x elapsed=0:01:18.24    \nframe=   97 fps=1.2 q=18.0 size=       1KiB time=00:00:00.80 bitrate=   5.6kbits/s speed=0.0102x elapsed=0:01:18.76    \nframe=   98 fps=1.2 q=36.0 size=       1KiB time=00:00:00.80 bitrate=   5.5kbits/s speed=0.0102x elapsed=0:01:19.28    \nframe=   98 fps=1.2 q=36.0 size=       1KiB time=00:00:00.80 bitrate=   5.5kbits/s speed=0.0101x elapsed=0:01:19.79    \nframe=  100 fps=1.2 q=36.0 size=       1KiB time=00:00:00.82 bitrate=   5.4kbits/s speed=0.0103x elapsed=0:01:20.31    \nframe=  101 fps=1.2 q=41.0 size=       1KiB time=00:00:00.83 bitrate=   5.4kbits/s speed=0.0103x elapsed=0:01:20.82    \nframe=  101 fps=1.2 q=41.0 size=       1KiB time=00:00:00.83 bitrate=   5.4kbits/s speed=0.0102x elapsed=0:01:21.35    \nframe=  102 fps=1.2 q=37.0 size=       1KiB time=00:00:00.84 bitrate=   5.3kbits/s speed=0.0103x elapsed=0:01:21.85    \nframe=  102 fps=1.2 q=37.0 size=       1KiB time=00:00:00.84 bitrate=   5.3kbits/s speed=0.0102x elapsed=0:01:22.37    \nframe=  103 fps=1.2 q=40.0 size=       1KiB time=00:00:00.85 bitrate=   5.3kbits/s speed=0.0103x elapsed=0:01:22.88    \nframe=  104 fps=1.2 q=37.0 size=       1KiB time=00:00:00.85 bitrate=   5.2kbits/s speed=0.0103x elapsed=0:01:23.40    \nframe=  105 fps=1.3 q=28.0 size=       1KiB time=00:00:00.86 bitrate=   5.2kbits/s speed=0.0103x elapsed=0:01:23.91    \nframe=  105 fps=1.2 q=28.0 size=       1KiB time=00:00:00.86 bitrate=   5.2kbits/s speed=0.0103x elapsed=0:01:24.44    \nframe=  106 fps=1.2 q=37.0 size=       1KiB time=00:00:00.87 bitrate=   5.1kbits/s speed=0.0103x elapsed=0:01:24.94    \nframe=  107 fps=1.3 q=40.0 size=       1KiB time=00:00:00.88 bitrate=   5.1kbits/s speed=0.0103x elapsed=0:01:25.47    \nframe=  109 fps=1.3 q=41.0 size=       1KiB time=00:00:00.90 bitrate=   5.0kbits/s speed=0.0105x elapsed=0:01:25.99    \nframe=  110 fps=1.3 q=37.0 size=       1KiB time=00:00:00.90 bitrate=   4.9kbits/s speed=0.0105x elapsed=0:01:26.51    \nframe=  112 fps=1.3 q=37.0 size=       1KiB time=00:00:00.92 bitrate=   4.8kbits/s speed=0.0106x elapsed=0:01:27.03    \nframe=  113 fps=1.3 q=19.0 size=       1KiB time=00:00:00.93 bitrate=   4.8kbits/s speed=0.0107x elapsed=0:01:27.55    \nframe=  113 fps=1.3 q=19.0 size=       1KiB time=00:00:00.93 bitrate=   4.8kbits/s speed=0.0106x elapsed=0:01:28.06    \nframe=  114 fps=1.3 q=37.0 size=       1KiB time=00:00:00.94 bitrate=   4.8kbits/s speed=0.0106x elapsed=0:01:28.58    \nframe=  116 fps=1.3 q=37.0 size=       1KiB time=00:00:00.95 bitrate=   4.7kbits/s speed=0.0108x elapsed=0:01:29.08    \nframe=  118 fps=1.3 q=38.0 size=       1KiB time=00:00:00.97 bitrate=   4.6kbits/s speed=0.0109x elapsed=0:01:29.61    \nframe=  118 fps=1.3 q=38.0 size=       1KiB time=00:00:00.97 bitrate=   4.6kbits/s speed=0.0108x elapsed=0:01:30.11    \nframe=  119 fps=1.3 q=40.0 size=       1KiB time=00:00:00.98 bitrate=   4.6kbits/s speed=0.0108x elapsed=0:01:30.64    \nframe=  120 fps=1.3 q=38.0 size=       1KiB time=00:00:00.99 bitrate=   4.5kbits/s speed=0.0109x elapsed=0:01:31.16    \nframe=  121 fps=1.3 q=27.0 size=       1KiB time=00:00:01.00 bitrate=   4.5kbits/s speed=0.0109x elapsed=0:01:31.66    \nframe=  124 fps=1.3 q=37.0 size=       1KiB time=00:00:01.02 bitrate=   4.4kbits/s speed=0.0111x elapsed=0:01:32.19    \nframe=  125 fps=1.3 q=41.0 size=       1KiB time=00:00:01.03 bitrate=   4.3kbits/s speed=0.0111x elapsed=0:01:32.70    \nframe=  127 fps=1.4 q=41.0 size=       1KiB time=00:00:01.05 bitrate=   4.3kbits/s speed=0.0113x elapsed=0:01:33.21    \nframe=  128 fps=1.4 q=37.0 size=       1KiB time=00:00:01.05 bitrate=   4.2kbits/s speed=0.0113x elapsed=0:01:33.73    \nframe=  129 fps=1.4 q=19.0 size=       1KiB time=00:00:01.06 bitrate=   4.2kbits/s speed=0.0113x elapsed=0:01:34.25    \nframe=  130 fps=1.4 q=38.0 size=       1KiB time=00:00:01.07 bitrate=   4.2kbits/s speed=0.0113x elapsed=0:01:34.76    \nframe=  131 fps=1.4 q=41.0 size=       1KiB time=00:00:01.08 bitrate=   4.1kbits/s speed=0.0114x elapsed=0:01:35.28    \nframe=  132 fps=1.4 q=37.0 size=       1KiB time=00:00:01.09 bitrate=   4.1kbits/s speed=0.0114x elapsed=0:01:35.79    \nframe=  132 fps=1.4 q=37.0 size=       1KiB time=00:00:01.09 bitrate=   4.1kbits/s speed=0.0113x elapsed=0:01:36.31    \nframe=  133 fps=1.4 q=41.0 size=       1KiB time=00:00:01.10 bitrate=   4.1kbits/s speed=0.0114x elapsed=0:01:36.83    \nframe=  134 fps=1.4 q=37.0 size=       1KiB time=00:00:01.10 bitrate=   4.0kbits/s speed=0.0114x elapsed=0:01:37.34    \nframe=  135 fps=1.4 q=41.0 size=       1KiB time=00:00:01.11 bitrate=   4.0kbits/s speed=0.0114x elapsed=0:01:37.86    \nframe=  136 fps=1.4 q=37.0 size=       1KiB time=00:00:01.12 bitrate=   4.0kbits/s speed=0.0114x elapsed=0:01:38.37    \nframe=  138 fps=1.4 q=36.0 size=       1KiB time=00:00:01.14 bitrate=   3.9kbits/s speed=0.0115x elapsed=0:01:38.89    \nframe=  139 fps=1.4 q=40.0 size=       1KiB time=00:00:01.15 bitrate=   3.9kbits/s speed=0.0116x elapsed=0:01:39.40    \nframe=  140 fps=1.4 q=36.0 size=       1KiB time=00:00:01.15 bitrate=   3.9kbits/s speed=0.0116x elapsed=0:01:39.92    \nframe=  141 fps=1.4 q=41.0 size=       1KiB time=00:00:01.16 bitrate=   3.8kbits/s speed=0.0116x elapsed=0:01:40.43    \nframe=  142 fps=1.4 q=36.0 size=       1KiB time=00:00:01.17 bitrate=   3.8kbits/s speed=0.0116x elapsed=0:01:40.95    \nframe=  144 fps=1.4 q=37.0 size=       1KiB time=00:00:01.19 bitrate=   3.8kbits/s speed=0.0117x elapsed=0:01:41.47    \nframe=  146 fps=1.4 q=37.0 size=       1KiB time=00:00:01.20 bitrate=   3.7kbits/s speed=0.0118x elapsed=0:01:41.98    \nframe=  146 fps=1.4 q=37.0 size=       1KiB time=00:00:01.20 bitrate=   3.7kbits/s speed=0.0118x elapsed=0:01:42.50    \nframe=  147 fps=1.4 q=41.0 size=       1KiB time=00:00:01.21 bitrate=   3.7kbits/s speed=0.0118x elapsed=0:01:43.02    \nframe=  148 fps=1.4 q=36.0 size=       1KiB time=00:00:01.22 bitrate=   3.7kbits/s speed=0.0118x elapsed=0:01:43.54    \nframe=  150 fps=1.4 q=35.0 size=       1KiB time=00:00:01.24 bitrate=   3.6kbits/s speed=0.0119x elapsed=0:01:44.06    \nframe=  151 fps=1.4 q=39.0 size=       1KiB time=00:00:01.25 bitrate=   3.6kbits/s speed=0.012x elapsed=0:01:44.57    \nframe=  152 fps=1.4 q=35.0 size=       1KiB time=00:00:01.25 bitrate=   3.6kbits/s speed=0.012x elapsed=0:01:45.09    \nframe=  153 fps=1.4 q=27.0 size=       1KiB time=00:00:01.26 bitrate=   3.5kbits/s speed=0.012x elapsed=0:01:45.60    \nframe=  155 fps=1.5 q=38.0 size=       1KiB time=00:00:01.28 bitrate=   3.5kbits/s speed=0.0121x elapsed=0:01:46.12    \nframe=  156 fps=1.5 q=32.0 size=       1KiB time=00:00:01.29 bitrate=   3.5kbits/s speed=0.0121x elapsed=0:01:46.64    \nframe=  158 fps=1.5 q=33.0 size=       1KiB time=00:00:01.30 bitrate=   3.4kbits/s speed=0.0122x elapsed=0:01:47.15    \nframe=  159 fps=1.5 q=37.0 size=       1KiB time=00:00:01.31 bitrate=   3.4kbits/s speed=0.0122x elapsed=0:01:47.67    \nframe=  160 fps=1.5 q=33.0 size=       1KiB time=00:00:01.32 bitrate=   3.4kbits/s speed=0.0122x elapsed=0:01:48.19    \nframe=  160 fps=1.5 q=33.0 size=       1KiB time=00:00:01.32 bitrate=   3.4kbits/s speed=0.0122x elapsed=0:01:48.71    \nframe=  161 fps=1.5 q=18.0 size=       1KiB time=00:00:01.33 bitrate=   3.4kbits/s speed=0.0122x elapsed=0:01:49.23    \nframe=  162 fps=1.5 q=33.0 size=       1KiB time=00:00:01.34 bitrate=   3.3kbits/s speed=0.0122x elapsed=0:01:49.74    \nframe=  164 fps=1.5 q=34.0 size=       1KiB time=00:00:01.35 bitrate=   3.3kbits/s speed=0.0123x elapsed=0:01:50.26    \nframe=  165 fps=1.5 q=39.0 size=       1KiB time=00:00:01.36 bitrate=   3.3kbits/s speed=0.0123x elapsed=0:01:50.78    \nframe=  166 fps=1.5 q=35.0 size=       1KiB time=00:00:01.37 bitrate=   3.3kbits/s speed=0.0124x elapsed=0:01:51.29    \nframe=  167 fps=1.5 q=38.0 size=       1KiB time=00:00:01.38 bitrate=   3.2kbits/s speed=0.0124x elapsed=0:01:51.81    \nframe=  167 fps=1.5 q=38.0 size=       1KiB time=00:00:01.38 bitrate=   3.2kbits/s speed=0.0123x elapsed=0:01:52.32    \nframe=  168 fps=1.5 q=36.0 size=       1KiB time=00:00:01.39 bitrate=   3.2kbits/s speed=0.0123x elapsed=0:01:52.84    \nframe=  169 fps=1.5 q=25.0 size=       1KiB time=00:00:01.40 bitrate=   3.2kbits/s speed=0.0123x elapsed=0:01:53.36    \nframe=  169 fps=1.5 q=25.0 size=       1KiB time=00:00:01.40 bitrate=   3.2kbits/s speed=0.0123x elapsed=0:01:53.87    \nframe=  170 fps=1.5 q=35.0 size=       1KiB time=00:00:01.40 bitrate=   3.2kbits/s speed=0.0123x elapsed=0:01:54.39    \nframe=  172 fps=1.5 q=35.0 size=       1KiB time=00:00:01.42 bitrate=   3.1kbits/s speed=0.0124x elapsed=0:01:54.90    \nframe=  173 fps=1.5 q=40.0 size=       1KiB time=00:00:01.43 bitrate=   3.1kbits/s speed=0.0124x elapsed=0:01:55.42    \nframe=  175 fps=1.5 q=39.0 size=       1KiB time=00:00:01.45 bitrate=   3.1kbits/s speed=0.0125x elapsed=0:01:55.93    \nframe=  176 fps=1.5 q=34.0 size=       1KiB time=00:00:01.45 bitrate=   3.1kbits/s speed=0.0125x elapsed=0:01:56.45    \nframe=  177 fps=1.5 q=18.0 size=       1KiB time=00:00:01.46 bitrate=   3.1kbits/s speed=0.0125x elapsed=0:01:56.96    \nframe=  178 fps=1.5 q=36.0 size=       1KiB time=00:00:01.47 bitrate=   3.0kbits/s speed=0.0126x elapsed=0:01:57.48    \nframe=  178 fps=1.5 q=36.0 size=       1KiB time=00:00:01.47 bitrate=   3.0kbits/s speed=0.0125x elapsed=0:01:58.00    \nframe=  179 fps=1.5 q=39.0 size=       1KiB time=00:00:01.48 bitrate=   3.0kbits/s speed=0.0125x elapsed=0:01:58.51    \nframe=  180 fps=1.5 q=36.0 size=       1KiB time=00:00:01.49 bitrate=   3.0kbits/s speed=0.0125x elapsed=0:01:59.03    \nframe=  181 fps=1.5 q=40.0 size=       1KiB time=00:00:01.50 bitrate=   3.0kbits/s speed=0.0125x elapsed=0:01:59.54    \nframe=  182 fps=1.5 q=35.0 size=       1KiB time=00:00:01.50 bitrate=   3.0kbits/s speed=0.0126x elapsed=0:02:00.06    \nframe=  183 fps=1.5 q=39.0 size=       1KiB time=00:00:01.51 bitrate=   3.0kbits/s speed=0.0126x elapsed=0:02:00.57    \nframe=  184 fps=1.5 q=35.0 size=       1KiB time=00:00:01.52 bitrate=   2.9kbits/s speed=0.0126x elapsed=0:02:01.09    \nframe=  184 fps=1.5 q=35.0 size=       1KiB time=00:00:01.52 bitrate=   2.9kbits/s speed=0.0125x elapsed=0:02:01.61    \nframe=  185 fps=1.5 q=25.0 size=       1KiB time=00:00:01.53 bitrate=   2.9kbits/s speed=0.0126x elapsed=0:02:02.11    \nframe=  186 fps=1.5 q=35.0 size=       1KiB time=00:00:01.54 bitrate=   2.9kbits/s speed=0.0126x elapsed=0:02:02.63    \nframe=  187 fps=1.5 q=39.0 size=       1KiB time=00:00:01.55 bitrate=   2.9kbits/s speed=0.0126x elapsed=0:02:03.15    \nframe=  188 fps=1.5 q=35.0 size=       1KiB time=00:00:01.55 bitrate=   2.9kbits/s speed=0.0126x elapsed=0:02:03.66    \nframe=  188 fps=1.5 q=35.0 size=       1KiB time=00:00:01.55 bitrate=   2.9kbits/s speed=0.0125x elapsed=0:02:04.18    \nframe=  190 fps=1.5 q=35.0 size=       1KiB time=00:00:01.57 bitrate=   2.8kbits/s speed=0.0126x elapsed=0:02:04.70    \nframe=  190 fps=1.5 q=35.0 size=       1KiB time=00:00:01.57 bitrate=   2.8kbits/s speed=0.0126x elapsed=0:02:05.21    \nframe=  192 fps=1.5 q=34.0 size=       1KiB time=00:00:01.59 bitrate=   2.8kbits/s speed=0.0127x elapsed=0:02:05.72    \nframe=  193 fps=1.5 q=18.0 size=       1KiB time=00:00:01.60 bitrate=   2.8kbits/s speed=0.0127x elapsed=0:02:06.25    \nframe=  193 fps=1.5 q=18.0 size=       1KiB time=00:00:01.60 bitrate=   2.8kbits/s speed=0.0126x elapsed=0:02:06.76    \nframe=  195 fps=1.5 q=38.0 size=       1KiB time=00:00:01.61 bitrate=   2.8kbits/s speed=0.0127x elapsed=0:02:07.28    \nframe=  196 fps=1.5 q=33.0 size=       1KiB time=00:00:01.62 bitrate=   2.8kbits/s speed=0.0127x elapsed=0:02:07.79    \nframe=  197 fps=1.5 q=39.0 size=       1KiB time=00:00:01.63 bitrate=   2.7kbits/s speed=0.0127x elapsed=0:02:08.31    \nframe=  198 fps=1.5 q=34.0 size=       1KiB time=00:00:01.64 bitrate=   2.7kbits/s speed=0.0127x elapsed=0:02:08.82    \nframe=  198 fps=1.5 q=34.0 size=       1KiB time=00:00:01.64 bitrate=   2.7kbits/s speed=0.0127x elapsed=0:02:09.34    \nframe=  198 fps=1.5 q=34.0 size=       1KiB time=00:00:01.64 bitrate=   2.7kbits/s speed=0.0126x elapsed=0:02:09.86    \nframe=  199 fps=1.5 q=37.0 size=       1KiB time=00:00:01.65 bitrate=   2.7kbits/s speed=0.0127x elapsed=0:02:10.37    \nframe=  199 fps=1.5 q=37.0 size=       1KiB time=00:00:01.65 bitrate=   2.7kbits/s speed=0.0126x elapsed=0:02:10.89    \nframe=  200 fps=1.5 q=34.0 size=       1KiB time=00:00:01.65 bitrate=   2.7kbits/s speed=0.0126x elapsed=0:02:11.40    \nframe=  202 fps=1.5 q=34.0 size=       1KiB time=00:00:01.67 bitrate=   2.7kbits/s speed=0.0127x elapsed=0:02:11.92    \nframe=  203 fps=1.5 q=38.0 size=       1KiB time=00:00:01.68 bitrate=   2.7kbits/s speed=0.0127x elapsed=0:02:12.43    \nframe=  204 fps=1.5 q=35.0 size=       1KiB time=00:00:01.69 bitrate=   2.6kbits/s speed=0.0127x elapsed=0:02:12.96    \nframe=  206 fps=1.5 q=36.0 size=       1KiB time=00:00:01.70 bitrate=   2.6kbits/s speed=0.0128x elapsed=0:02:13.46    \nframe=  207 fps=1.5 q=39.0 size=       1KiB time=00:00:01.71 bitrate=   2.6kbits/s speed=0.0128x elapsed=0:02:13.99    \nframe=  208 fps=1.5 q=36.0 size=       1KiB time=00:00:01.72 bitrate=   2.6kbits/s speed=0.0128x elapsed=0:02:14.49    \nframe=  209 fps=1.5 q=18.0 size=       1KiB time=00:00:01.73 bitrate=   2.6kbits/s speed=0.0128x elapsed=0:02:15.02    \nframe=  209 fps=1.5 q=18.0 size=       1KiB time=00:00:01.73 bitrate=   2.6kbits/s speed=0.0128x elapsed=0:02:15.52    \nframe=  210 fps=1.5 q=37.0 size=       1KiB time=00:00:01.74 bitrate=   2.6kbits/s speed=0.0128x elapsed=0:02:16.04    \nframe=  211 fps=1.5 q=40.0 size=       1KiB time=00:00:01.75 bitrate=   2.6kbits/s speed=0.0128x elapsed=0:02:16.56    \nframe=  212 fps=1.5 q=37.0 size=       1KiB time=00:00:01.75 bitrate=   2.5kbits/s speed=0.0128x elapsed=0:02:17.08    \nframe=  213 fps=1.5 q=40.0 size=       1KiB time=00:00:01.76 bitrate=   2.5kbits/s speed=0.0128x elapsed=0:02:17.58    \nframe=  214 fps=1.5 q=37.0 size=       1KiB time=00:00:01.77 bitrate=   2.5kbits/s speed=0.0129x elapsed=0:02:18.11    \nframe=  215 fps=1.6 q=41.0 size=       1KiB time=00:00:01.78 bitrate=   2.5kbits/s speed=0.0129x elapsed=0:02:18.61    \nframe=  215 fps=1.5 q=41.0 size=       1KiB time=00:00:01.78 bitrate=   2.5kbits/s speed=0.0128x elapsed=0:02:19.13    \nframe=  216 fps=1.5 q=38.0 size=       1KiB time=00:00:01.79 bitrate=   2.5kbits/s speed=0.0128x elapsed=0:02:19.66    \nframe=  218 fps=1.6 q=38.0 size=       1KiB time=00:00:01.80 bitrate=   2.5kbits/s speed=0.0129x elapsed=0:02:20.17    \nframe=  220 fps=1.6 q=38.0 size=       1KiB time=00:00:01.82 bitrate=   2.5kbits/s speed=0.013x elapsed=0:02:20.69    \nframe=  222 fps=1.6 q=37.0 size=       1KiB time=00:00:01.84 bitrate=   2.4kbits/s speed=0.013x elapsed=0:02:21.19    \nframe=  224 fps=1.6 q=37.0 size=       1KiB time=00:00:01.85 bitrate=   2.4kbits/s speed=0.0131x elapsed=0:02:21.71    \nframe=  225 fps=1.6 q=17.0 size=       1KiB time=00:00:01.86 bitrate=   2.4kbits/s speed=0.0131x elapsed=0:02:22.24    \nframe=  226 fps=1.6 q=38.0 size=       1KiB time=00:00:01.87 bitrate=   2.4kbits/s speed=0.0131x elapsed=0:02:22.74    \nframe=  226 fps=1.6 q=38.0 size=       1KiB time=00:00:01.87 bitrate=   2.4kbits/s speed=0.0131x elapsed=0:02:23.26    \nframe=  227 fps=1.6 q=41.0 size=       1KiB time=00:00:01.88 bitrate=   2.4kbits/s speed=0.0131x elapsed=0:02:23.77    \nframe=  229 fps=1.6 q=41.0 size=       1KiB time=00:00:01.90 bitrate=   2.4kbits/s speed=0.0132x elapsed=0:02:24.29    \nframe=  229 fps=1.6 q=41.0 size=       1KiB time=00:00:01.90 bitrate=   2.4kbits/s speed=0.0131x elapsed=0:02:24.80    \nframe=  231 fps=1.6 q=42.0 size=       1KiB time=00:00:01.91 bitrate=   2.3kbits/s speed=0.0132x elapsed=0:02:25.32    \nframe=  233 fps=1.6 q=25.0 size=       1KiB time=00:00:01.93 bitrate=   2.3kbits/s speed=0.0133x elapsed=0:02:25.85    \nframe=  233 fps=1.6 q=25.0 size=       1KiB time=00:00:01.93 bitrate=   2.3kbits/s speed=0.0132x elapsed=0:02:26.35    \nframe=  234 fps=1.6 q=38.0 size=       1KiB time=00:00:01.94 bitrate=   2.3kbits/s speed=0.0132x elapsed=0:02:26.87    \nframe=  237 fps=1.6 q=42.0 size=       1KiB time=00:00:01.96 bitrate=   2.3kbits/s speed=0.0133x elapsed=0:02:27.39    \nframe=  239 fps=1.6 q=41.0 size=       1KiB time=00:00:01.98 bitrate=   2.3kbits/s speed=0.0134x elapsed=0:02:27.89    \nframe=  239 fps=1.6 q=41.0 size=       1KiB time=00:00:01.98 bitrate=   2.3kbits/s speed=0.0134x elapsed=0:02:28.42    \nframe=  240 fps=1.6 q=35.0 size=       1KiB time=00:00:01.99 bitrate=   2.2kbits/s speed=0.0134x elapsed=0:02:28.94    \nframe=  241 fps=1.6 q=17.0 size=       1KiB time=00:00:02.00 bitrate=   2.2kbits/s speed=0.0134x elapsed=0:02:29.45    \nframe=  243 fps=1.6 q=42.0 size=       1KiB time=00:00:02.01 bitrate=   2.2kbits/s speed=0.0134x elapsed=0:02:29.97    \nframe=  246 fps=1.6 q=38.0 size=       1KiB time=00:00:02.04 bitrate=   2.2kbits/s speed=0.0136x elapsed=0:02:30.49    \nframe=  247 fps=1.6 q=41.0 size=       1KiB time=00:00:02.05 bitrate=   2.2kbits/s speed=0.0136x elapsed=0:02:30.99    \nframe=  248 fps=1.6 q=38.0 size=       1KiB time=00:00:02.05 bitrate=   2.2kbits/s speed=0.0136x elapsed=0:02:31.51    \nframe=  249 fps=1.6 q=27.0 size=       1KiB time=00:00:02.06 bitrate=   2.2kbits/s speed=0.0136x elapsed=0:02:32.02    \nframe=  250 fps=1.6 q=37.0 size=       1KiB time=00:00:02.07 bitrate=   2.2kbits/s speed=0.0136x elapsed=0:02:32.54    \nframe=  250 fps=1.6 q=37.0 size=       1KiB time=00:00:02.07 bitrate=   2.2kbits/s speed=0.0136x elapsed=0:02:33.06    \nframe=  251 fps=1.6 q=40.0 size=       1KiB time=00:00:02.08 bitrate=   2.2kbits/s speed=0.0136x elapsed=0:02:33.58    \nframe=  253 fps=1.6 q=42.0 size=       1KiB time=00:00:02.10 bitrate=   2.1kbits/s speed=0.0136x elapsed=0:02:34.10    \nframe=  255 fps=1.6 q=39.0 size=       1KiB time=00:00:02.11 bitrate=   2.1kbits/s speed=0.0137x elapsed=0:02:34.62    \nframe=  256 fps=1.7 q=37.0 size=       1KiB time=00:00:02.12 bitrate=   2.1kbits/s speed=0.0137x elapsed=0:02:35.14    \nframe=  257 fps=1.7 q=20.0 size=       1KiB time=00:00:02.13 bitrate=   2.1kbits/s speed=0.0137x elapsed=0:02:35.65    \nframe=  258 fps=1.7 q=35.0 size=       1KiB time=00:00:02.14 bitrate=   2.1kbits/s speed=0.0137x elapsed=0:02:36.16    \nframe=  258 fps=1.6 q=35.0 size=       1KiB time=00:00:02.14 bitrate=   2.1kbits/s speed=0.0137x elapsed=0:02:36.69    \nframe=  259 fps=1.6 q=36.0 size=       1KiB time=00:00:02.15 bitrate=   2.1kbits/s speed=0.0137x elapsed=0:02:37.20    \nframe=  261 fps=1.7 q=38.0 size=       1KiB time=00:00:02.16 bitrate=   2.1kbits/s speed=0.0137x elapsed=0:02:37.71    \nframe=  262 fps=1.7 q=35.0 size=       1KiB time=00:00:02.17 bitrate=   2.1kbits/s speed=0.0137x elapsed=0:02:38.23    \nframe=  263 fps=1.7 q=36.0 size=       1KiB time=00:00:02.18 bitrate=   2.1kbits/s speed=0.0138x elapsed=0:02:38.75    \nframe=  263 fps=1.7 q=36.0 size=       1KiB time=00:00:02.18 bitrate=   2.1kbits/s speed=0.0137x elapsed=0:02:39.26    \nframe=  264 fps=1.7 q=35.0 size=       1KiB time=00:00:02.19 bitrate=   2.0kbits/s speed=0.0137x elapsed=0:02:39.78    \nframe=  266 fps=1.7 q=36.0 size=       1KiB time=00:00:02.20 bitrate=   2.0kbits/s speed=0.0138x elapsed=0:02:40.29    \nframe=  267 fps=1.7 q=37.0 size=       1KiB time=00:00:02.21 bitrate=   2.0kbits/s speed=0.0138x elapsed=0:02:40.81    \nframe=  268 fps=1.7 q=32.0 size=       1KiB time=00:00:02.22 bitrate=   2.0kbits/s speed=0.0138x elapsed=0:02:41.33    \nframe=  268 fps=1.7 q=32.0 size=       1KiB time=00:00:02.22 bitrate=   2.0kbits/s speed=0.0137x elapsed=0:02:41.84    \nframe=  270 fps=1.7 q=36.0 size=       1KiB time=00:00:02.24 bitrate=   2.0kbits/s speed=0.0138x elapsed=0:02:42.35    \nframe=  272 fps=1.7 q=36.0 size=       1KiB time=00:00:02.25 bitrate=   2.0kbits/s speed=0.0139x elapsed=0:02:42.87    \nframe=  273 fps=1.7 q=24.0 size=       1KiB time=00:00:02.26 bitrate=   2.0kbits/s speed=0.0139x elapsed=0:02:43.38    \nframe=  274 fps=1.7 q=38.0 size=       1KiB time=00:00:02.27 bitrate=   2.0kbits/s speed=0.0139x elapsed=0:02:43.90    \nframe=  275 fps=1.7 q=40.0 size=       1KiB time=00:00:02.28 bitrate=   2.0kbits/s speed=0.0139x elapsed=0:02:44.41    \nframe=  276 fps=1.7 q=38.0 size=       1KiB time=00:00:02.29 bitrate=   2.0kbits/s speed=0.0139x elapsed=0:02:44.94    \nframe=  277 fps=1.7 q=39.0 size=       1KiB time=00:00:02.30 bitrate=   1.9kbits/s speed=0.0139x elapsed=0:02:45.45    \nframe=  278 fps=1.7 q=39.0 size=       1KiB time=00:00:02.30 bitrate=   1.9kbits/s speed=0.0139x elapsed=0:02:45.97    \nframe=  279 fps=1.7 q=42.0 size=       1KiB time=00:00:02.31 bitrate=   1.9kbits/s speed=0.0139x elapsed=0:02:46.48    \nframe=  279 fps=1.7 q=42.0 size=       1KiB time=00:00:02.31 bitrate=   1.9kbits/s speed=0.0139x elapsed=0:02:46.99    \nframe=  280 fps=1.7 q=40.0 size=       1KiB time=00:00:02.32 bitrate=   1.9kbits/s speed=0.0139x elapsed=0:02:47.51    \nframe=  281 fps=1.7 q=29.0 size=       1KiB time=00:00:02.33 bitrate=   1.9kbits/s speed=0.0139x elapsed=0:02:48.02    \nframe=  283 fps=1.7 q=43.0 size=       1KiB time=00:00:02.35 bitrate=   1.9kbits/s speed=0.0139x elapsed=0:02:48.54    \nframe=  283 fps=1.7 q=43.0 size=       1KiB time=00:00:02.35 bitrate=   1.9kbits/s speed=0.0139x elapsed=0:02:49.05    \nframe=  284 fps=1.7 q=40.0 size=       1KiB time=00:00:02.35 bitrate=   1.9kbits/s speed=0.0139x elapsed=0:02:49.57    \nframe=  286 fps=1.7 q=40.0 size=       1KiB time=00:00:02.37 bitrate=   1.9kbits/s speed=0.014x elapsed=0:02:50.09    \nframe=  288 fps=1.7 q=39.0 size=       1KiB time=00:00:02.39 bitrate=   1.9kbits/s speed=0.014x elapsed=0:02:50.60    \nframe=  289 fps=1.7 q=23.0 size=       1KiB time=00:00:02.40 bitrate=   1.9kbits/s speed=0.014x elapsed=0:02:51.12    \nframe=  291 fps=1.7 q=44.0 size=       1KiB time=00:00:02.41 bitrate=   1.9kbits/s speed=0.0141x elapsed=0:02:51.65    \nframe=  292 fps=1.7 q=40.0 size=       1KiB time=00:00:02.42 bitrate=   1.8kbits/s speed=0.0141x elapsed=0:02:52.21    \nframe=  293 fps=1.7 q=42.0 size=       1KiB time=00:00:02.43 bitrate=   1.8kbits/s speed=0.0141x elapsed=0:02:52.74    \nframe=  294 fps=1.7 q=43.0 size=       1KiB time=00:00:02.44 bitrate=   1.8kbits/s speed=0.0141x elapsed=0:02:53.25    \nframe=  296 fps=1.7 q=40.0 size=       1KiB time=00:00:02.45 bitrate=   1.8kbits/s speed=0.0141x elapsed=0:02:53.79    \nframe=  297 fps=1.7 q=29.0 size=       1KiB time=00:00:02.46 bitrate=   1.8kbits/s speed=0.0141x elapsed=0:02:54.34    \nframe=  298 fps=1.7 q=39.0 size=       1KiB time=00:00:02.47 bitrate=   1.8kbits/s speed=0.0142x elapsed=0:02:54.85    \nframe=  301 fps=1.7 q=42.0 size=       1KiB time=00:00:02.48 bitrate=   1.8kbits/s speed=0.0142x elapsed=0:02:55.37    \nframe=  303 fps=1.7 q=40.0 size=       1KiB time=00:00:02.51 bitrate=   1.8kbits/s speed=0.0142x elapsed=0:02:56.99    \nframe=  304 fps=1.7 q=33.0 size=       1KiB time=00:00:02.52 bitrate=   1.8kbits/s speed=0.0142x elapsed=0:02:57.85    \nframe=  305 fps=1.7 q=21.0 size=       1KiB time=00:00:02.53 bitrate=   1.8kbits/s speed=0.0142x elapsed=0:02:58.36    \nframe=  307 fps=1.7 q=40.0 size=       1KiB time=00:00:02.55 bitrate=   1.8kbits/s speed=0.0143x elapsed=0:02:58.88    \nframe=  307 fps=1.7 q=40.0 size=       1KiB time=00:00:02.55 bitrate=   1.8kbits/s speed=0.0142x elapsed=0:02:59.46    \nframe=  309 fps=1.7 q=42.0 size=       1KiB time=00:00:02.56 bitrate=   1.7kbits/s speed=0.0143x elapsed=0:02:59.99    \nframe=  310 fps=1.7 q=38.0 size=       1KiB time=00:00:02.57 bitrate=   1.7kbits/s speed=0.0143x elapsed=0:03:00.51    \nframe=  310 fps=1.7 q=38.0 size=       1KiB time=00:00:02.57 bitrate=   1.7kbits/s speed=0.0142x elapsed=0:03:01.02    \nframe=  311 fps=1.7 q=39.0 size=       1KiB time=00:00:02.58 bitrate=   1.7kbits/s speed=0.0142x elapsed=0:03:01.54    \nframe=  312 fps=1.7 q=38.0 size=       1KiB time=00:00:02.59 bitrate=   1.7kbits/s speed=0.0142x elapsed=0:03:02.08    \nframe=  314 fps=1.7 q=38.0 size=       1KiB time=00:00:02.60 bitrate=   1.7kbits/s speed=0.0143x elapsed=0:03:02.65    \nframe=  315 fps=1.7 q=39.0 size=       1KiB time=00:00:02.61 bitrate=   1.7kbits/s speed=0.0143x elapsed=0:03:03.18    \nframe=  315 fps=1.7 q=39.0 size=       1KiB time=00:00:02.61 bitrate=   1.7kbits/s speed=0.0142x elapsed=0:03:03.69    \nframe=  317 fps=1.7 q=41.0 size=       1KiB time=00:00:02.63 bitrate=   1.7kbits/s speed=0.0143x elapsed=0:03:04.31    \nframe=  319 fps=1.7 q=39.0 size=       1KiB time=00:00:02.65 bitrate=   1.7kbits/s speed=0.0143x elapsed=0:03:04.86    \nframe=  320 fps=1.7 q=38.0 size=       1KiB time=00:00:02.65 bitrate=   1.7kbits/s speed=0.0143x elapsed=0:03:05.41    \nframe=  323 fps=1.7 q=40.0 size=       1KiB time=00:00:02.68 bitrate=   1.7kbits/s speed=0.0144x elapsed=0:03:05.95    \nframe=  323 fps=1.7 q=40.0 size=       1KiB time=00:00:02.68 bitrate=   1.7kbits/s speed=0.0144x elapsed=0:03:06.48    \nframe=  325 fps=1.7 q=41.0 size=       1KiB time=00:00:02.70 bitrate=   1.7kbits/s speed=0.0144x elapsed=0:03:07.00    \nframe=  326 fps=1.7 q=38.0 size=       1KiB time=00:00:02.70 bitrate=   1.7kbits/s speed=0.0144x elapsed=0:03:07.52    \nframe=  327 fps=1.7 q=40.0 size=       1KiB time=00:00:02.71 bitrate=   1.6kbits/s speed=0.0144x elapsed=0:03:08.11    \nframe=  328 fps=1.7 q=38.0 size=       1KiB time=00:00:02.72 bitrate=   1.6kbits/s speed=0.0144x elapsed=0:03:08.63    \nframe=  329 fps=1.7 q=29.0 size=       1KiB time=00:00:02.73 bitrate=   1.6kbits/s speed=0.0144x elapsed=0:03:09.15    \nframe=  331 fps=1.7 q=41.0 size=       1KiB time=00:00:02.75 bitrate=   1.6kbits/s speed=0.0145x elapsed=0:03:09.69    \nframe=  332 fps=1.7 q=39.0 size=       1KiB time=00:00:02.75 bitrate=   1.6kbits/s speed=0.0145x elapsed=0:03:10.26    \nframe=  334 fps=1.8 q=41.0 size=       1KiB time=00:00:02.77 bitrate=   1.6kbits/s speed=0.0145x elapsed=0:03:10.83    \nframe=  337 fps=1.8 q=21.0 size=       1KiB time=00:00:02.80 bitrate=   1.6kbits/s speed=0.0146x elapsed=0:03:11.38    \nframe=  338 fps=1.8 q=38.0 size=       1KiB time=00:00:02.80 bitrate=   1.6kbits/s speed=0.0146x elapsed=0:03:11.93    \nframe=  338 fps=1.8 q=38.0 size=       1KiB time=00:00:02.80 bitrate=   1.6kbits/s speed=0.0146x elapsed=0:03:12.44    \nframe=  340 fps=1.8 q=38.0 size=       1KiB time=00:00:02.82 bitrate=   1.6kbits/s speed=0.0146x elapsed=0:03:12.97    \nframe=  341 fps=1.8 q=41.0 size=       1KiB time=00:00:02.83 bitrate=   1.6kbits/s speed=0.0146x elapsed=0:03:13.50    \nframe=  343 fps=1.8 q=40.0 size=       1KiB time=00:00:02.85 bitrate=   1.6kbits/s speed=0.0147x elapsed=0:03:14.03    \nframe=  344 fps=1.8 q=34.0 size=       1KiB time=00:00:02.85 bitrate=   1.6kbits/s speed=0.0147x elapsed=0:03:14.58    \nframe=  345 fps=1.8 q=30.0 size=       1KiB time=00:00:02.86 bitrate=   1.6kbits/s speed=0.0147x elapsed=0:03:15.11    \nframe=  347 fps=1.8 q=40.0 size=       1KiB time=00:00:02.88 bitrate=   1.6kbits/s speed=0.0147x elapsed=0:03:15.63    \nframe=  347 fps=1.8 q=40.0 size=       1KiB time=00:00:02.88 bitrate=   1.6kbits/s speed=0.0147x elapsed=0:03:16.15    \nframe=  349 fps=1.8 q=41.0 size=       1KiB time=00:00:02.90 bitrate=   1.5kbits/s speed=0.0147x elapsed=0:03:16.69    \nframe=  352 fps=1.8 q=39.0 size=       1KiB time=00:00:02.92 bitrate=   1.5kbits/s speed=0.0148x elapsed=0:03:17.24    \nframe=  354 fps=1.8 q=39.0 size=       1KiB time=00:00:02.94 bitrate=   1.5kbits/s speed=0.0149x elapsed=0:03:17.80    \nframe=  354 fps=1.8 q=39.0 size=       1KiB time=00:00:02.94 bitrate=   1.5kbits/s speed=0.0148x elapsed=0:03:18.34    \nframe=  356 fps=1.8 q=39.0 size=       1KiB time=00:00:02.95 bitrate=   1.5kbits/s speed=0.0149x elapsed=0:03:18.87    \nframe=  358 fps=1.8 q=39.0 size=       1KiB time=00:00:02.97 bitrate=   1.5kbits/s speed=0.0149x elapsed=0:03:19.39    \nframe=  359 fps=1.8 q=42.0 size=       1KiB time=00:00:02.98 bitrate=   1.5kbits/s speed=0.0149x elapsed=0:03:19.91    \nframe=  360 fps=1.8 q=37.0 size=       1KiB time=00:00:02.99 bitrate=   1.5kbits/s speed=0.0149x elapsed=0:03:20.58    \nframe=  361 fps=1.8 q=29.0 size=       1KiB time=00:00:03.00 bitrate=   1.5kbits/s speed=0.0149x elapsed=0:03:21.09    \nframe=  362 fps=1.8 q=39.0 size=       1KiB time=00:00:03.00 bitrate=   1.5kbits/s speed=0.0149x elapsed=0:03:21.62    \nframe=  363 fps=1.8 q=42.0 size=       1KiB time=00:00:03.01 bitrate=   1.5kbits/s speed=0.0149x elapsed=0:03:22.13    \nframe=  364 fps=1.8 q=39.0 size=       1KiB time=00:00:03.02 bitrate=   1.5kbits/s speed=0.0149x elapsed=0:03:22.65    \nframe=  366 fps=1.8 q=39.0 size=       1KiB time=00:00:03.04 bitrate=   1.5kbits/s speed=0.015x elapsed=0:03:23.16    \nframe=  369 fps=1.8 q=22.0 size=       1KiB time=00:00:03.05 bitrate=   1.5kbits/s speed=0.015x elapsed=0:03:23.72    \nframe=  370 fps=1.8 q=38.0 size=       1KiB time=00:00:03.07 bitrate=   1.5kbits/s speed=0.0151x elapsed=0:03:24.28    \nframe=  371 fps=1.8 q=40.0 size=       1KiB time=00:00:03.08 bitrate=   1.5kbits/s speed=0.0151x elapsed=0:03:24.81    \nframe=  372 fps=1.8 q=34.0 size=       1KiB time=00:00:03.09 bitrate=   1.4kbits/s speed=0.015x elapsed=0:03:25.43    \nframe=  373 fps=1.8 q=42.0 size=       1KiB time=00:00:03.10 bitrate=   1.4kbits/s speed=0.0151x elapsed=0:03:25.94    \nframe=  374 fps=1.8 q=38.0 size=       1KiB time=00:00:03.10 bitrate=   1.4kbits/s speed=0.0151x elapsed=0:03:26.51    \nframe=  375 fps=1.8 q=40.0 size=       1KiB time=00:00:03.11 bitrate=   1.4kbits/s speed=0.015x elapsed=0:03:27.08    \nframe=  376 fps=1.8 q=38.0 size=       1KiB time=00:00:03.12 bitrate=   1.4kbits/s speed=0.015x elapsed=0:03:27.67    \nframe=  376 fps=1.8 q=38.0 size=       1KiB time=00:00:03.12 bitrate=   1.4kbits/s speed=0.015x elapsed=0:03:28.21    \nframe=  378 fps=1.8 q=38.0 size=       1KiB time=00:00:03.13 bitrate=   1.4kbits/s speed=0.015x elapsed=0:03:28.84    \nframe=  378 fps=1.8 q=38.0 size=       1KiB time=00:00:03.14 bitrate=   1.4kbits/s speed=0.015x elapsed=0:03:29.40    \nframe=  379 fps=1.8 q=40.0 size=       1KiB time=00:00:03.15 bitrate=   1.4kbits/s speed=0.015x elapsed=0:03:29.94    \nframe=  380 fps=1.8 q=38.0 size=       1KiB time=00:00:03.15 bitrate=   1.4kbits/s speed=0.015x elapsed=0:03:30.48    \nframe=  382 fps=1.8 q=38.0 size=       1KiB time=00:00:03.17 bitrate=   1.4kbits/s speed=0.015x elapsed=0:03:31.00    \nframe=  383 fps=1.8 q=40.0 size=       1KiB time=00:00:03.18 bitrate=   1.4kbits/s speed=0.015x elapsed=0:03:31.52    \nframe=  384 fps=1.8 q=38.0 size=       1KiB time=00:00:03.19 bitrate=   1.4kbits/s speed=0.0151x elapsed=0:03:32.04    \nframe=  386 fps=1.8 q=39.0 size=       1KiB time=00:00:03.20 bitrate=   1.4kbits/s speed=0.0151x elapsed=0:03:32.55    \nframe=  387 fps=1.8 q=42.0 size=       1KiB time=00:00:03.21 bitrate=   1.4kbits/s speed=0.0151x elapsed=0:03:33.07    \nframe=  387 fps=1.8 q=42.0 size=       1KiB time=00:00:03.21 bitrate=   1.4kbits/s speed=0.0151x elapsed=0:03:33.60    \nframe=  388 fps=1.8 q=37.0 size=       1KiB time=00:00:03.22 bitrate=   1.4kbits/s speed=0.0151x elapsed=0:03:34.12    \nframe=  389 fps=1.8 q=42.0 size=       1KiB time=00:00:03.23 bitrate=   1.4kbits/s speed=0.0151x elapsed=0:03:34.68    \nframe=  390 fps=1.8 q=39.0 size=       1KiB time=00:00:03.24 bitrate=   1.4kbits/s speed=0.0151x elapsed=0:03:35.21    \nframe=  390 fps=1.8 q=39.0 size=       1KiB time=00:00:03.24 bitrate=   1.4kbits/s speed=0.015x elapsed=0:03:35.73    \nframe=  390 fps=1.8 q=39.0 size=       1KiB time=00:00:03.24 bitrate=   1.4kbits/s speed=0.015x elapsed=0:03:36.24    \nframe=  391 fps=1.8 q=42.0 size=       1KiB time=00:00:03.25 bitrate=   1.4kbits/s speed=0.015x elapsed=0:03:36.76    \nframe=  391 fps=1.8 q=42.0 size=       1KiB time=00:00:03.25 bitrate=   1.4kbits/s speed=0.015x elapsed=0:03:37.27    \nframe=  392 fps=1.8 q=39.0 size=       1KiB time=00:00:03.25 bitrate=   1.4kbits/s speed=0.015x elapsed=0:03:37.80    \nframe=  393 fps=1.8 q=29.0 size=       1KiB time=00:00:03.26 bitrate=   1.4kbits/s speed=0.015x elapsed=0:03:38.31    \nframe=  393 fps=1.8 q=29.0 size=       1KiB time=00:00:03.26 bitrate=   1.4kbits/s speed=0.0149x elapsed=0:03:38.84    \nframe=  395 fps=1.8 q=43.0 size=       1KiB time=00:00:03.28 bitrate=   1.4kbits/s speed=0.015x elapsed=0:03:39.35    \nframe=  396 fps=1.8 q=40.0 size=       1KiB time=00:00:03.29 bitrate=   1.4kbits/s speed=0.015x elapsed=0:03:39.87    \nframe=  396 fps=1.8 q=40.0 size=       1KiB time=00:00:03.29 bitrate=   1.4kbits/s speed=0.0149x elapsed=0:03:40.40    \nframe=  397 fps=1.8 q=41.0 size=       1KiB time=00:00:03.30 bitrate=   1.4kbits/s speed=0.0149x elapsed=0:03:40.92    \nframe=  399 fps=1.8 q=43.0 size=       1KiB time=00:00:03.31 bitrate=   1.4kbits/s speed=0.015x elapsed=0:03:41.45    \nframe=  400 fps=1.8 q=40.0 size=       1KiB time=00:00:03.32 bitrate=   1.3kbits/s speed=0.015x elapsed=0:03:41.98    \nframe=  401 fps=1.8 q=21.0 size=       1KiB time=00:00:03.33 bitrate=   1.3kbits/s speed=0.015x elapsed=0:03:42.49    \nframe=  402 fps=1.8 q=40.0 size=       1KiB time=00:00:03.34 bitrate=   1.3kbits/s speed=0.015x elapsed=0:03:43.01    \nframe=  402 fps=1.8 q=40.0 size=       1KiB time=00:00:03.34 bitrate=   1.3kbits/s speed=0.0149x elapsed=0:03:43.52    \nframe=  404 fps=1.8 q=40.0 size=       1KiB time=00:00:03.35 bitrate=   1.3kbits/s speed=0.015x elapsed=0:03:44.04    \nframe=  405 fps=1.8 q=42.0 size=       1KiB time=00:00:03.36 bitrate=   1.3kbits/s speed=0.015x elapsed=0:03:44.55    \nframe=  405 fps=1.8 q=42.0 size=       1KiB time=00:00:03.36 bitrate=   1.3kbits/s speed=0.015x elapsed=0:03:45.08    \nframe=  406 fps=1.8 q=40.0 size=       1KiB time=00:00:03.37 bitrate=   1.3kbits/s speed=0.015x elapsed=0:03:45.59    \nframe=  407 fps=1.8 q=43.0 size=       1KiB time=00:00:03.38 bitrate=   1.3kbits/s speed=0.015x elapsed=0:03:46.11    \nframe=  407 fps=1.8 q=43.0 size=       1KiB time=00:00:03.38 bitrate=   1.3kbits/s speed=0.0149x elapsed=0:03:46.63    \nframe=  408 fps=1.8 q=37.0 size=       1KiB time=00:00:03.39 bitrate=   1.3kbits/s speed=0.0149x elapsed=0:03:47.15    \nframe=  409 fps=1.8 q=29.0 size=       1KiB time=00:00:03.40 bitrate=   1.3kbits/s speed=0.0149x elapsed=0:03:47.67    \nframe=  410 fps=1.8 q=39.0 size=       1KiB time=00:00:03.40 bitrate=   1.3kbits/s speed=0.0149x elapsed=0:03:48.19    \nframe=  411 fps=1.8 q=42.0 size=       1KiB time=00:00:03.41 bitrate=   1.3kbits/s speed=0.0149x elapsed=0:03:48.70    \nframe=  412 fps=1.8 q=39.0 size=       1KiB time=00:00:03.42 bitrate=   1.3kbits/s speed=0.0149x elapsed=0:03:49.23    \nframe=  412 fps=1.8 q=39.0 size=       1KiB time=00:00:03.42 bitrate=   1.3kbits/s speed=0.0149x elapsed=0:03:49.75    \nframe=  413 fps=1.8 q=42.0 size=       1KiB time=00:00:03.43 bitrate=   1.3kbits/s speed=0.0149x elapsed=0:03:50.26    \nframe=  415 fps=1.8 q=42.0 size=       1KiB time=00:00:03.45 bitrate=   1.3kbits/s speed=0.0149x elapsed=0:03:50.77    \nframe=  416 fps=1.8 q=39.0 size=       1KiB time=00:00:03.45 bitrate=   1.3kbits/s speed=0.015x elapsed=0:03:51.29    \nframe=  416 fps=1.8 q=39.0 size=       1KiB time=00:00:03.45 bitrate=   1.3kbits/s speed=0.0149x elapsed=0:03:51.80    \nframe=  417 fps=1.8 q=21.0 size=       1KiB time=00:00:03.46 bitrate=   1.3kbits/s speed=0.0149x elapsed=0:03:52.32    \nframe=  417 fps=1.8 q=21.0 size=       1KiB time=00:00:03.46 bitrate=   1.3kbits/s speed=0.0149x elapsed=0:03:52.84    \nframe=  418 fps=1.8 q=38.0 size=       1KiB time=00:00:03.47 bitrate=   1.3kbits/s speed=0.0149x elapsed=0:03:53.35    \nframe=  419 fps=1.8 q=40.0 size=       1KiB time=00:00:03.48 bitrate=   1.3kbits/s speed=0.0149x elapsed=0:03:53.88    \nframe=  420 fps=1.8 q=38.0 size=       1KiB time=00:00:03.49 bitrate=   1.3kbits/s speed=0.0149x elapsed=0:03:54.41    \nframe=  421 fps=1.8 q=41.0 size=       1KiB time=00:00:03.50 bitrate=   1.3kbits/s speed=0.0149x elapsed=0:03:54.94    \nframe=  422 fps=1.8 q=38.0 size=       1KiB time=00:00:03.50 bitrate=   1.3kbits/s speed=0.0149x elapsed=0:03:55.45    \nframe=  422 fps=1.8 q=38.0 size=       1KiB time=00:00:03.50 bitrate=   1.3kbits/s speed=0.0149x elapsed=0:03:55.96    \nframe=  423 fps=1.8 q=40.0 size=       1KiB time=00:00:03.51 bitrate=   1.3kbits/s speed=0.0149x elapsed=0:03:56.48    \nframe=  423 fps=1.8 q=40.0 size=       1KiB time=00:00:03.51 bitrate=   1.3kbits/s speed=0.0148x elapsed=0:03:56.99    \nframe=  424 fps=1.8 q=38.0 size=       1KiB time=00:00:03.52 bitrate=   1.3kbits/s speed=0.0148x elapsed=0:03:57.50    \nframe=  424 fps=1.8 q=38.0 size=       1KiB time=00:00:03.52 bitrate=   1.3kbits/s speed=0.0148x elapsed=0:03:58.02    \nframe=  426 fps=1.8 q=38.0 size=       1KiB time=00:00:03.54 bitrate=   1.3kbits/s speed=0.0148x elapsed=0:03:58.54    \nframe=  427 fps=1.8 q=40.0 size=       1KiB time=00:00:03.55 bitrate=   1.3kbits/s speed=0.0148x elapsed=0:03:59.05    \nframe=  427 fps=1.8 q=40.0 size=       1KiB time=00:00:03.55 bitrate=   1.3kbits/s speed=0.0148x elapsed=0:03:59.57    \nframe=  428 fps=1.8 q=38.0 size=       1KiB time=00:00:03.55 bitrate=   1.3kbits/s speed=0.0148x elapsed=0:04:00.08    \nframe=  428 fps=1.8 q=38.0 size=       1KiB time=00:00:03.55 bitrate=   1.3kbits/s speed=0.0148x elapsed=0:04:00.60    \nframe=  430 fps=1.8 q=39.0 size=       1KiB time=00:00:03.57 bitrate=   1.3kbits/s speed=0.0148x elapsed=0:04:01.11    \nframe=  433 fps=1.8 q=23.0 size=       1KiB time=00:00:03.60 bitrate=   1.2kbits/s speed=0.0149x elapsed=0:04:01.63    \nframe=  434 fps=1.8 q=38.0 size=       1KiB time=00:00:03.60 bitrate=   1.2kbits/s speed=0.0149x elapsed=0:04:02.16    \nframe=  434 fps=1.8 q=40.0 size=       1KiB time=00:00:03.61 bitrate=   1.2kbits/s speed=0.0149x elapsed=0:04:02.69    \nframe=  435 fps=1.8 q=40.0 size=       1KiB time=00:00:03.61 bitrate=   1.2kbits/s speed=0.0149x elapsed=0:04:03.21    \nframe=  435 fps=1.8 q=40.0 size=       1KiB time=00:00:03.61 bitrate=   1.2kbits/s speed=0.0148x elapsed=0:04:03.72    \nframe=  437 fps=1.8 q=41.0 size=       1KiB time=00:00:03.63 bitrate=   1.2kbits/s speed=0.0149x elapsed=0:04:04.24    \nframe=  438 fps=1.8 q=39.0 size=       1KiB time=00:00:03.64 bitrate=   1.2kbits/s speed=0.0149x elapsed=0:04:04.75    \nframe=  439 fps=1.8 q=41.0 size=       1KiB time=00:00:03.65 bitrate=   1.2kbits/s speed=0.0149x elapsed=0:04:05.28    \nframe=  439 fps=1.8 q=41.0 size=       1KiB time=00:00:03.65 bitrate=   1.2kbits/s speed=0.0148x elapsed=0:04:05.79    \nframe=  440 fps=1.8 q=39.0 size=       1KiB time=00:00:03.65 bitrate=   1.2kbits/s speed=0.0149x elapsed=0:04:06.30    \nframe=  441 fps=1.8 q=30.0 size=       1KiB time=00:00:03.66 bitrate=   1.2kbits/s speed=0.0149x elapsed=0:04:06.82    \nframe=  442 fps=1.8 q=39.0 size=       1KiB time=00:00:03.67 bitrate=   1.2kbits/s speed=0.0149x elapsed=0:04:07.35    \nframe=  443 fps=1.8 q=41.0 size=       1KiB time=00:00:03.68 bitrate=   1.2kbits/s speed=0.0149x elapsed=0:04:07.87    \nframe=  444 fps=1.8 q=39.0 size=       1KiB time=00:00:03.69 bitrate=   1.2kbits/s speed=0.0149x elapsed=0:04:08.38    \nframe=  444 fps=1.8 q=39.0 size=       1KiB time=00:00:03.69 bitrate=   1.2kbits/s speed=0.0148x elapsed=0:04:08.91    \nframe=  446 fps=1.8 q=39.0 size=       1KiB time=00:00:03.70 bitrate=   1.2kbits/s speed=0.0149x elapsed=0:04:09.44    \nframe=  448 fps=1.8 q=39.0 size=       1KiB time=00:00:03.72 bitrate=   1.2kbits/s speed=0.0149x elapsed=0:04:09.94    \nframe=  448 fps=1.8 q=39.0 size=       1KiB time=00:00:03.72 bitrate=   1.2kbits/s speed=0.0149x elapsed=0:04:10.47    \nframe=  449 fps=1.8 q=23.0 size=       1KiB time=00:00:03.73 bitrate=   1.2kbits/s speed=0.0149x elapsed=0:04:11.00    \nframe=  450 fps=1.8 q=40.0 size=       1KiB time=00:00:03.74 bitrate=   1.2kbits/s speed=0.0149x elapsed=0:04:11.53    \nframe=  451 fps=1.8 q=44.0 size=       1KiB time=00:00:03.75 bitrate=   1.2kbits/s speed=0.0149x elapsed=0:04:12.03    \nframe=  452 fps=1.8 q=40.0 size=       1KiB time=00:00:03.75 bitrate=   1.2kbits/s speed=0.0149x elapsed=0:04:12.55    \nframe=  452 fps=1.8 q=40.0 size=       1KiB time=00:00:03.75 bitrate=   1.2kbits/s speed=0.0149x elapsed=0:04:13.08    \nframe=  453 fps=1.8 q=42.0 size=       1KiB time=00:00:03.76 bitrate=   1.2kbits/s speed=0.0149x elapsed=0:04:13.58    \nframe=  454 fps=1.8 q=40.0 size=       1KiB time=00:00:03.77 bitrate=   1.2kbits/s speed=0.0149x elapsed=0:04:14.10    \nframe=  455 fps=1.8 q=43.0 size=       1KiB time=00:00:03.78 bitrate=   1.2kbits/s speed=0.0149x elapsed=0:04:14.63    \nframe=  456 fps=1.8 q=40.0 size=       1KiB time=00:00:03.79 bitrate=   1.2kbits/s speed=0.0149x elapsed=0:04:15.14    \nframe=  458 fps=1.8 q=39.0 size=       1KiB time=00:00:03.80 bitrate=   1.2kbits/s speed=0.0149x elapsed=0:04:15.65    \nframe=  460 fps=1.8 q=39.0 size=       1KiB time=00:00:03.82 bitrate=   1.2kbits/s speed=0.0149x elapsed=0:04:16.17    \nframe=  461 fps=1.8 q=42.0 size=       1KiB time=00:00:03.83 bitrate=   1.2kbits/s speed=0.0149x elapsed=0:04:16.68    \nframe=  461 fps=1.8 q=42.0 size=       1KiB time=00:00:03.83 bitrate=   1.2kbits/s speed=0.0149x elapsed=0:04:17.20    \nframe=  463 fps=1.8 q=42.0 size=       1KiB time=00:00:03.85 bitrate=   1.2kbits/s speed=0.0149x elapsed=0:04:17.72    \nframe=  464 fps=1.8 q=39.0 size=       1KiB time=00:00:03.85 bitrate=   1.2kbits/s speed=0.0149x elapsed=0:04:18.24    \nframe=  465 fps=1.8 q=20.0 size=       1KiB time=00:00:03.86 bitrate=   1.2kbits/s speed=0.0149x elapsed=0:04:18.77    \nframe=  466 fps=1.8 q=38.0 size=       1KiB time=00:00:03.87 bitrate=   1.2kbits/s speed=0.0149x elapsed=0:04:19.27    \nframe=  466 fps=1.8 q=38.0 size=       1KiB time=00:00:03.87 bitrate=   1.2kbits/s speed=0.0149x elapsed=0:04:19.79    \nframe=  467 fps=1.8 q=40.0 size=       1KiB time=00:00:03.88 bitrate=   1.2kbits/s speed=0.0149x elapsed=0:04:20.30    \nframe=  468 fps=1.8 q=38.0 size=       1KiB time=00:00:03.89 bitrate=   1.2kbits/s speed=0.0149x elapsed=0:04:20.82    \nframe=  469 fps=1.8 q=42.0 size=       1KiB time=00:00:03.90 bitrate=   1.1kbits/s speed=0.0149x elapsed=0:04:21.34    \nframe=  469 fps=1.8 q=42.0 size=       1KiB time=00:00:03.90 bitrate=   1.1kbits/s speed=0.0149x elapsed=0:04:21.86    \nframe=  471 fps=1.8 q=40.0 size=       1KiB time=00:00:03.91 bitrate=   1.1kbits/s speed=0.0149x elapsed=0:04:22.37    \nframe=  471 fps=1.8 q=40.0 size=       1KiB time=00:00:03.91 bitrate=   1.1kbits/s speed=0.0149x elapsed=0:04:22.88    \nframe=  472 fps=1.8 q=38.0 size=       1KiB time=00:00:03.92 bitrate=   1.1kbits/s speed=0.0149x elapsed=0:04:23.41    \nframe=  473 fps=1.8 q=29.0 size=       1KiB time=00:00:03.93 bitrate=   1.1kbits/s speed=0.0149x elapsed=0:04:23.93    \nframe=  475 fps=1.8 q=40.0 size=       1KiB time=00:00:03.95 bitrate=   1.1kbits/s speed=0.0149x elapsed=0:04:24.47    \nframe=  475 fps=1.8 q=40.0 size=       1KiB time=00:00:03.95 bitrate=   1.1kbits/s speed=0.0149x elapsed=0:04:24.98    \nframe=  475 fps=1.8 q=40.0 size=       1KiB time=00:00:03.95 bitrate=   1.1kbits/s speed=0.0149x elapsed=0:04:25.50    \nframe=  476 fps=1.8 q=38.0 size=       1KiB time=00:00:03.95 bitrate=   1.1kbits/s speed=0.0149x elapsed=0:04:26.01    \nframe=  477 fps=1.8 q=42.0 size=       1KiB time=00:00:03.96 bitrate=   1.1kbits/s speed=0.0149x elapsed=0:04:26.52    \nframe=  479 fps=1.8 q=39.0 size=       1KiB time=00:00:03.98 bitrate=   1.1kbits/s speed=0.0149x elapsed=0:04:27.03    \nframe=  479 fps=1.8 q=39.0 size=       1KiB time=00:00:03.98 bitrate=   1.1kbits/s speed=0.0149x elapsed=0:04:27.56    \nframe=  480 fps=1.8 q=38.0 size=       1KiB time=00:00:03.99 bitrate=   1.1kbits/s speed=0.0149x elapsed=0:04:28.08    \nframe=  481 fps=1.8 q=22.0 size=       1KiB time=00:00:04.00 bitrate=   1.1kbits/s speed=0.0149x elapsed=0:04:28.59    \nframe=  482 fps=1.8 q=38.0 size=       1KiB time=00:00:04.00 bitrate=   1.1kbits/s speed=0.0149x elapsed=0:04:29.10    \nframe=  482 fps=1.8 q=38.0 size=       1KiB time=00:00:04.00 bitrate=   1.1kbits/s speed=0.0149x elapsed=0:04:29.62    \nframe=  484 fps=1.8 q=38.0 size=       1KiB time=00:00:04.02 bitrate=   1.1kbits/s speed=0.0149x elapsed=0:04:30.13    \nframe=  484 fps=1.8 q=38.0 size=       1KiB time=00:00:04.02 bitrate=   1.1kbits/s speed=0.0149x elapsed=0:04:30.64    \nframe=  485 fps=1.8 q=41.0 size=       1KiB time=00:00:04.03 bitrate=   1.1kbits/s speed=0.0149x elapsed=0:04:31.17    \nframe=  486 fps=1.8 q=38.0 size=       1KiB time=00:00:04.04 bitrate=   1.1kbits/s speed=0.0149x elapsed=0:04:31.70    \nframe=  486 fps=1.8 q=38.0 size=       1KiB time=00:00:04.04 bitrate=   1.1kbits/s speed=0.0148x elapsed=0:04:32.21    \nframe=  486 fps=1.8 q=38.0 size=       1KiB time=00:00:04.04 bitrate=   1.1kbits/s speed=0.0148x elapsed=0:04:32.73    \nframe=  487 fps=1.8 q=40.0 size=       1KiB time=00:00:04.05 bitrate=   1.1kbits/s speed=0.0148x elapsed=0:04:33.25    \nframe=  487 fps=1.8 q=40.0 size=       1KiB time=00:00:04.05 bitrate=   1.1kbits/s speed=0.0148x elapsed=0:04:33.78    \nframe=  488 fps=1.8 q=34.0 size=       1KiB time=00:00:04.05 bitrate=   1.1kbits/s speed=0.0148x elapsed=0:04:34.29    \nframe=  488 fps=1.8 q=34.0 size=       1KiB time=00:00:04.05 bitrate=   1.1kbits/s speed=0.0148x elapsed=0:04:34.80    \nframe=  489 fps=1.8 q=29.0 size=       1KiB time=00:00:04.06 bitrate=   1.1kbits/s speed=0.0148x elapsed=0:04:35.33    \nframe=  490 fps=1.8 q=38.0 size=       1KiB time=00:00:04.07 bitrate=   1.1kbits/s speed=0.0148x elapsed=0:04:35.84    \nframe=  490 fps=1.8 q=38.0 size=       1KiB time=00:00:04.07 bitrate=   1.1kbits/s speed=0.0147x elapsed=0:04:36.37    \nframe=  490 fps=1.8 q=38.0 size=       1KiB time=00:00:04.07 bitrate=   1.1kbits/s speed=0.0147x elapsed=0:04:36.89    \nframe=  492 fps=1.8 q=38.0 size=       1KiB time=00:00:04.09 bitrate=   1.1kbits/s speed=0.0147x elapsed=0:04:37.40    \nframe=  494 fps=1.8 q=38.0 size=       1KiB time=00:00:04.10 bitrate=   1.1kbits/s speed=0.0148x elapsed=0:04:37.91    \nframe=  495 fps=1.8 q=40.0 size=       1KiB time=00:00:04.11 bitrate=   1.1kbits/s speed=0.0148x elapsed=0:04:38.44    \nframe=  496 fps=1.8 q=39.0 size=       1KiB time=00:00:04.12 bitrate=   1.1kbits/s speed=0.0148x elapsed=0:04:38.97    \nframe=  497 fps=1.8 q=22.0 size=       1KiB time=00:00:04.13 bitrate=   1.1kbits/s speed=0.0148x elapsed=0:04:39.48    \nframe=  497 fps=1.8 q=22.0 size=       1KiB time=00:00:04.13 bitrate=   1.1kbits/s speed=0.0148x elapsed=0:04:39.99    \nframe=  498 fps=1.8 q=39.0 size=       1KiB time=00:00:04.14 bitrate=   1.1kbits/s speed=0.0148x elapsed=0:04:40.50    \nframe=  499 fps=1.8 q=41.0 size=       1KiB time=00:00:04.15 bitrate=   1.1kbits/s speed=0.0148x elapsed=0:04:41.02    \nframe=  500 fps=1.8 q=39.0 size=       1KiB time=00:00:04.15 bitrate=   1.1kbits/s speed=0.0148x elapsed=0:04:41.55    \nframe=  502 fps=1.8 q=39.0 size=       1KiB time=00:00:04.17 bitrate=   1.1kbits/s speed=0.0148x elapsed=0:04:42.05    \nframe=  505 fps=1.8 q=29.0 size=       1KiB time=00:00:04.20 bitrate=   1.1kbits/s speed=0.0149x elapsed=0:04:42.57    \nframe=  505 fps=1.8 q=29.0 size=       1KiB time=00:00:04.20 bitrate=   1.1kbits/s speed=0.0148x elapsed=0:04:43.11    \nframe=  505 fps=1.8 q=29.0 size=       1KiB time=00:00:04.20 bitrate=   1.1kbits/s speed=0.0148x elapsed=0:04:43.64    \nframe=  505 fps=1.8 q=29.0 size=       1KiB time=00:00:04.20 bitrate=   1.1kbits/s speed=0.0148x elapsed=0:04:44.15    \nframe=  507 fps=1.8 q=41.0 size=       1KiB time=00:00:04.21 bitrate=   1.1kbits/s speed=0.0148x elapsed=0:04:44.67    \nframe=  509 fps=1.8 q=42.0 size=       1KiB time=00:00:04.23 bitrate=   1.1kbits/s speed=0.0148x elapsed=0:04:45.19    \nframe=  509 fps=1.8 q=42.0 size=       1KiB time=00:00:04.23 bitrate=   1.1kbits/s speed=0.0148x elapsed=0:04:45.72    \nframe=  509 fps=1.8 q=42.0 size=       1KiB time=00:00:04.23 bitrate=   1.1kbits/s speed=0.0148x elapsed=0:04:46.23    \nframe=  509 fps=1.8 q=42.0 size=       1KiB time=00:00:04.23 bitrate=   1.1kbits/s speed=0.0148x elapsed=0:04:46.74    \nframe=  511 fps=1.8 q=40.0 size=       1KiB time=00:00:04.25 bitrate=   1.1kbits/s speed=0.0148x elapsed=0:04:47.27    \nframe=  513 fps=1.8 q=22.0 size=       1KiB time=00:00:04.26 bitrate=   1.0kbits/s speed=0.0148x elapsed=0:04:47.78    \nframe=  513 fps=1.8 q=22.0 size=       1KiB time=00:00:04.26 bitrate=   1.0kbits/s speed=0.0148x elapsed=0:04:48.31    \nframe=  513 fps=1.8 q=22.0 size=       1KiB time=00:00:04.26 bitrate=   1.0kbits/s speed=0.0148x elapsed=0:04:48.82    \nframe=  515 fps=1.8 q=40.0 size=       1KiB time=00:00:04.28 bitrate=   1.0kbits/s speed=0.0148x elapsed=0:04:49.34    \nframe=  515 fps=1.8 q=40.0 size=       1KiB time=00:00:04.28 bitrate=   1.0kbits/s speed=0.0148x elapsed=0:04:49.85    \nframe=  517 fps=1.8 q=42.0 size=       1KiB time=00:00:04.30 bitrate=   1.0kbits/s speed=0.0148x elapsed=0:04:50.38    \nframe=  517 fps=1.8 q=42.0 size=       1KiB time=00:00:04.30 bitrate=   1.0kbits/s speed=0.0148x elapsed=0:04:50.91    \nframe=  517 fps=1.8 q=42.0 size=       1KiB time=00:00:04.30 bitrate=   1.0kbits/s speed=0.0148x elapsed=0:04:51.42    \nframe=  517 fps=1.8 q=42.0 size=       1KiB time=00:00:04.30 bitrate=   1.0kbits/s speed=0.0147x elapsed=0:04:51.93    \nframe=  519 fps=1.8 q=40.0 size=       1KiB time=00:00:04.31 bitrate=   1.0kbits/s speed=0.0148x elapsed=0:04:52.45    \nframe=  521 fps=1.8 q=29.0 size=       1KiB time=00:00:04.33 bitrate=   1.0kbits/s speed=0.0148x elapsed=0:04:52.96    \nframe=  521 fps=1.8 q=29.0 size=       1KiB time=00:00:04.33 bitrate=   1.0kbits/s speed=0.0148x elapsed=0:04:53.48    \nframe=  521 fps=1.8 q=29.0 size=       1KiB time=00:00:04.33 bitrate=   1.0kbits/s speed=0.0147x elapsed=0:04:54.00    \nframe=  521 fps=1.8 q=29.0 size=       1KiB time=00:00:04.33 bitrate=   1.0kbits/s speed=0.0147x elapsed=0:04:54.53    \nframe=  521 fps=1.8 q=29.0 size=       1KiB time=00:00:04.33 bitrate=   1.0kbits/s speed=0.0147x elapsed=0:04:55.04    \nframe=  523 fps=1.8 q=40.0 size=       1KiB time=00:00:04.35 bitrate=   1.0kbits/s speed=0.0147x elapsed=0:04:55.56    \nframe=  525 fps=1.8 q=41.0 size=       1KiB time=00:00:04.36 bitrate=   1.0kbits/s speed=0.0147x elapsed=0:04:56.07    \nframe=  525 fps=1.8 q=41.0 size=       1KiB time=00:00:04.36 bitrate=   1.0kbits/s speed=0.0147x elapsed=0:04:56.59    \nframe=  525 fps=1.8 q=41.0 size=       1KiB time=00:00:04.36 bitrate=   1.0kbits/s speed=0.0147x elapsed=0:04:57.11    \nframe=  527 fps=1.8 q=40.0 size=       1KiB time=00:00:04.38 bitrate=   1.0kbits/s speed=0.0147x elapsed=0:04:57.64    \nframe=  529 fps=1.8 q=21.0 size=       1KiB time=00:00:04.40 bitrate=   1.0kbits/s speed=0.0148x elapsed=0:04:58.16    \nframe=  529 fps=1.8 q=21.0 size=       1KiB time=00:00:04.40 bitrate=   1.0kbits/s speed=0.0147x elapsed=0:04:58.68    \nframe=  529 fps=1.8 q=21.0 size=       1KiB time=00:00:04.40 bitrate=   1.0kbits/s speed=0.0147x elapsed=0:04:59.19    \nframe=  531 fps=1.8 q=40.0 size=       1KiB time=00:00:04.41 bitrate=   1.0kbits/s speed=0.0147x elapsed=0:04:59.72    \nframe=  533 fps=1.8 q=41.0 size=       1KiB time=00:00:04.43 bitrate=   1.0kbits/s speed=0.0148x elapsed=0:05:00.25    \nframe=  533 fps=1.8 q=41.0 size=       1KiB time=00:00:04.43 bitrate=   1.0kbits/s speed=0.0147x elapsed=0:05:00.77    \nframe=  533 fps=1.8 q=41.0 size=       1KiB time=00:00:04.43 bitrate=   1.0kbits/s speed=0.0147x elapsed=0:05:01.29    \nframe=  535 fps=1.8 q=39.0 size=       1KiB time=00:00:04.45 bitrate=   1.0kbits/s speed=0.0147x elapsed=0:05:01.83    \nframe=  535 fps=1.8 q=39.0 size=       1KiB time=00:00:04.45 bitrate=   1.0kbits/s speed=0.0147x elapsed=0:05:02.33    \nframe=  537 fps=1.8 q=29.0 size=       1KiB time=00:00:04.46 bitrate=   1.0kbits/s speed=0.0147x elapsed=0:05:02.85    \nframe=  537 fps=1.8 q=29.0 size=       1KiB time=00:00:04.46 bitrate=   1.0kbits/s speed=0.0147x elapsed=0:05:03.36    \nframe=  537 fps=1.8 q=29.0 size=       1KiB time=00:00:04.46 bitrate=   1.0kbits/s speed=0.0147x elapsed=0:05:03.89    \nframe=  537 fps=1.8 q=29.0 size=       1KiB time=00:00:04.46 bitrate=   1.0kbits/s speed=0.0147x elapsed=0:05:04.41    \nframe=  539 fps=1.8 q=39.0 size=       1KiB time=00:00:04.48 bitrate=   1.0kbits/s speed=0.0147x elapsed=0:05:04.93    \nframe=  539 fps=1.8 q=39.0 size=       1KiB time=00:00:04.48 bitrate=   1.0kbits/s speed=0.0147x elapsed=0:05:05.45    \nframe=  541 fps=1.8 q=41.0 size=       1KiB time=00:00:04.50 bitrate=   1.0kbits/s speed=0.0147x elapsed=0:05:05.97    \nframe=  541 fps=1.8 q=41.0 size=       1KiB time=00:00:04.50 bitrate=   1.0kbits/s speed=0.0147x elapsed=0:05:06.47    \nframe=  543 fps=1.8 q=39.0 size=       1KiB time=00:00:04.51 bitrate=   1.0kbits/s speed=0.0147x elapsed=0:05:06.99    \nframe=  545 fps=1.8 q=21.0 size=       1KiB time=00:00:04.53 bitrate=   1.0kbits/s speed=0.0147x elapsed=0:05:07.51    \nframe=  545 fps=1.8 q=21.0 size=       1KiB time=00:00:04.53 bitrate=   1.0kbits/s speed=0.0147x elapsed=0:05:08.03    \nframe=  545 fps=1.8 q=21.0 size=       1KiB time=00:00:04.53 bitrate=   1.0kbits/s speed=0.0147x elapsed=0:05:08.56    \nframe=  545 fps=1.8 q=21.0 size=       1KiB time=00:00:04.53 bitrate=   1.0kbits/s speed=0.0147x elapsed=0:05:09.08    \nframe=  545 fps=1.8 q=21.0 size=       1KiB time=00:00:04.53 bitrate=   1.0kbits/s speed=0.0146x elapsed=0:05:09.59    \nframe=  547 fps=1.8 q=38.0 size=       1KiB time=00:00:04.55 bitrate=   1.0kbits/s speed=0.0147x elapsed=0:05:10.10    \nframe=  549 fps=1.8 q=40.0 size=       1KiB time=00:00:04.56 bitrate=   1.0kbits/s speed=0.0147x elapsed=0:05:10.62    \nframe=  549 fps=1.8 q=40.0 size=       1KiB time=00:00:04.56 bitrate=   1.0kbits/s speed=0.0147x elapsed=0:05:11.13    \nframe=  549 fps=1.8 q=40.0 size=       1KiB time=00:00:04.56 bitrate=   1.0kbits/s speed=0.0147x elapsed=0:05:11.65    \nframe=  549 fps=1.8 q=40.0 size=       1KiB time=00:00:04.56 bitrate=   1.0kbits/s speed=0.0146x elapsed=0:05:12.17    \nframe=  551 fps=1.8 q=38.0 size=       1KiB time=00:00:04.58 bitrate=   1.0kbits/s speed=0.0147x elapsed=0:05:12.69    \nframe=  553 fps=1.8 q=29.0 size=       1KiB time=00:00:04.60 bitrate=   1.0kbits/s speed=0.0147x elapsed=0:05:13.21    \nframe=  553 fps=1.8 q=29.0 size=       1KiB time=00:00:04.60 bitrate=   1.0kbits/s speed=0.0147x elapsed=0:05:13.73    \nframe=  553 fps=1.8 q=29.0 size=       1KiB time=00:00:04.60 bitrate=   1.0kbits/s speed=0.0146x elapsed=0:05:14.25    \nframe=  553 fps=1.8 q=29.0 size=       1KiB time=00:00:04.60 bitrate=   1.0kbits/s speed=0.0146x elapsed=0:05:14.77    \nframe=  553 fps=1.8 q=29.0 size=       1KiB time=00:00:04.60 bitrate=   1.0kbits/s speed=0.0146x elapsed=0:05:15.29    \nframe=  553 fps=1.8 q=29.0 size=       1KiB time=00:00:04.60 bitrate=   1.0kbits/s speed=0.0146x elapsed=0:05:15.81    \nframe=  553 fps=1.7 q=29.0 size=       1KiB time=00:00:04.60 bitrate=   1.0kbits/s speed=0.0145x elapsed=0:05:16.32    \nframe=  555 fps=1.8 q=38.0 size=       1KiB time=00:00:04.61 bitrate=   1.0kbits/s speed=0.0146x elapsed=0:05:16.83    \nframe=  557 fps=1.8 q=40.0 size=       1KiB time=00:00:04.63 bitrate=   1.0kbits/s speed=0.0146x elapsed=0:05:17.35    \nframe=  557 fps=1.8 q=40.0 size=       1KiB time=00:00:04.63 bitrate=   1.0kbits/s speed=0.0146x elapsed=0:05:17.88    \nframe=  557 fps=1.7 q=40.0 size=       1KiB time=00:00:04.63 bitrate=   1.0kbits/s speed=0.0146x elapsed=0:05:18.41    \nframe=  557 fps=1.7 q=40.0 size=       1KiB time=00:00:04.63 bitrate=   1.0kbits/s speed=0.0145x elapsed=0:05:18.92    \nframe=  557 fps=1.7 q=40.0 size=       1KiB time=00:00:04.63 bitrate=   1.0kbits/s speed=0.0145x elapsed=0:05:19.45    \nframe=  559 fps=1.7 q=39.0 size=       1KiB time=00:00:04.65 bitrate=   1.0kbits/s speed=0.0145x elapsed=0:05:19.98    \nframe=  559 fps=1.7 q=39.0 size=       1KiB time=00:00:04.65 bitrate=   1.0kbits/s speed=0.0145x elapsed=0:05:20.51    \nframe=  561 fps=1.7 q=22.0 size=       1KiB time=00:00:04.66 bitrate=   1.0kbits/s speed=0.0145x elapsed=0:05:21.02    \nframe=  561 fps=1.7 q=22.0 size=       1KiB time=00:00:04.66 bitrate=   1.0kbits/s speed=0.0145x elapsed=0:05:21.54    \nframe=  563 fps=1.7 q=39.0 size=       1KiB time=00:00:04.68 bitrate=   1.0kbits/s speed=0.0145x elapsed=0:05:22.06    \nframe=  565 fps=1.8 q=40.0 size=       1KiB time=00:00:04.70 bitrate=   1.0kbits/s speed=0.0146x elapsed=0:05:22.57    \nframe=  565 fps=1.7 q=40.0 size=       1KiB time=00:00:04.70 bitrate=   1.0kbits/s speed=0.0145x elapsed=0:05:23.10    \nframe=  565 fps=1.7 q=40.0 size=       1KiB time=00:00:04.70 bitrate=   1.0kbits/s speed=0.0145x elapsed=0:05:23.60    \nframe=  567 fps=1.7 q=39.0 size=       1KiB time=00:00:04.71 bitrate=   0.9kbits/s speed=0.0146x elapsed=0:05:24.13    \nframe=  569 fps=1.8 q=29.0 size=       1KiB time=00:00:04.73 bitrate=   0.9kbits/s speed=0.0146x elapsed=0:05:24.65    \nframe=  569 fps=1.7 q=29.0 size=       1KiB time=00:00:04.73 bitrate=   0.9kbits/s speed=0.0146x elapsed=0:05:25.16    \nframe=  569 fps=1.7 q=29.0 size=       1KiB time=00:00:04.73 bitrate=   0.9kbits/s speed=0.0145x elapsed=0:05:25.68    \nframe=  569 fps=1.7 q=29.0 size=       1KiB time=00:00:04.73 bitrate=   0.9kbits/s speed=0.0145x elapsed=0:05:26.21    \nframe=  569 fps=1.7 q=29.0 size=       1KiB time=00:00:04.73 bitrate=   0.9kbits/s speed=0.0145x elapsed=0:05:26.72    \nframe=  571 fps=1.7 q=38.0 size=       1KiB time=00:00:04.75 bitrate=   0.9kbits/s speed=0.0145x elapsed=0:05:27.25    \nframe=  571 fps=1.7 q=38.0 size=       1KiB time=00:00:04.75 bitrate=   0.9kbits/s speed=0.0145x elapsed=0:05:27.78    \nframe=  573 fps=1.7 q=40.0 size=       1KiB time=00:00:04.76 bitrate=   0.9kbits/s speed=0.0145x elapsed=0:05:28.30    \nframe=  573 fps=1.7 q=40.0 size=       1KiB time=00:00:04.76 bitrate=   0.9kbits/s speed=0.0145x elapsed=0:05:28.82    \nframe=  573 fps=1.7 q=40.0 size=       1KiB time=00:00:04.76 bitrate=   0.9kbits/s speed=0.0145x elapsed=0:05:29.33    \nframe=  575 fps=1.7 q=39.0 size=       1KiB time=00:00:04.78 bitrate=   0.9kbits/s speed=0.0145x elapsed=0:05:29.85    \nframe=  575 fps=1.7 q=39.0 size=       1KiB time=00:00:04.78 bitrate=   0.9kbits/s speed=0.0145x elapsed=0:05:30.37    \nframe=  577 fps=1.7 q=22.0 size=       1KiB time=00:00:04.80 bitrate=   0.9kbits/s speed=0.0145x elapsed=0:05:30.90    \nframe=  577 fps=1.7 q=22.0 size=       1KiB time=00:00:04.80 bitrate=   0.9kbits/s speed=0.0145x elapsed=0:05:31.46    \nframe=  579 fps=1.7 q=37.0 size=       1KiB time=00:00:04.81 bitrate=   0.9kbits/s speed=0.0145x elapsed=0:05:32.01    \nframe=  579 fps=1.7 q=37.0 size=       1KiB time=00:00:04.81 bitrate=   0.9kbits/s speed=0.0145x elapsed=0:05:32.55    \nframe=  581 fps=1.7 q=39.0 size=       1KiB time=00:00:04.83 bitrate=   0.9kbits/s speed=0.0145x elapsed=0:05:33.11    \nframe=  581 fps=1.7 q=39.0 size=       1KiB time=00:00:04.83 bitrate=   0.9kbits/s speed=0.0145x elapsed=0:05:33.67    \nframe=  581 fps=1.7 q=39.0 size=       1KiB time=00:00:04.83 bitrate=   0.9kbits/s speed=0.0145x elapsed=0:05:34.22    \nframe=  583 fps=1.7 q=40.0 size=       1KiB time=00:00:04.85 bitrate=   0.9kbits/s speed=0.0145x elapsed=0:05:34.80    \nframe=  583 fps=1.7 q=40.0 size=       1KiB time=00:00:04.85 bitrate=   0.9kbits/s speed=0.0145x elapsed=0:05:35.36    \nframe=  585 fps=1.7 q=29.0 size=       1KiB time=00:00:04.86 bitrate=   0.9kbits/s speed=0.0145x elapsed=0:05:35.92    \nframe=  585 fps=1.7 q=29.0 size=       1KiB time=00:00:04.86 bitrate=   0.9kbits/s speed=0.0145x elapsed=0:05:36.50    \nframe=  585 fps=1.7 q=29.0 size=       1KiB time=00:00:04.86 bitrate=   0.9kbits/s speed=0.0144x elapsed=0:05:37.06    \nframe=  585 fps=1.7 q=29.0 size=       1KiB time=00:00:04.86 bitrate=   0.9kbits/s speed=0.0144x elapsed=0:05:37.65    \nframe=  585 fps=1.7 q=29.0 size=       1KiB time=00:00:04.86 bitrate=   0.9kbits/s speed=0.0144x elapsed=0:05:38.22    \nframe=  587 fps=1.7 q=38.0 size=       1KiB time=00:00:04.88 bitrate=   0.9kbits/s speed=0.0144x elapsed=0:05:38.79    \nframe=  589 fps=1.7 q=41.0 size=       1KiB time=00:00:04.90 bitrate=   0.9kbits/s speed=0.0144x elapsed=0:05:39.37    \nframe=  589 fps=1.7 q=41.0 size=       1KiB time=00:00:04.90 bitrate=   0.9kbits/s speed=0.0144x elapsed=0:05:39.93    \nframe=  589 fps=1.7 q=41.0 size=       1KiB time=00:00:04.90 bitrate=   0.9kbits/s speed=0.0144x elapsed=0:05:40.49    \nframe=  589 fps=1.7 q=41.0 size=       1KiB time=00:00:04.90 bitrate=   0.9kbits/s speed=0.0144x elapsed=0:05:41.06    \nframe=  591 fps=1.7 q=38.0 size=       1KiB time=00:00:04.91 bitrate=   0.9kbits/s speed=0.0144x elapsed=0:05:41.64    \n[out#0/matroska @ 000001dc97359100] video:2092KiB audio:0KiB subtitle:0KiB other streams:0KiB global headers:0KiB muxing overhead: 0.156073%\nframe=  600 fps=1.8 q=47.0 Lsize=    2095KiB time=00:00:04.99 bitrate=3438.2kbits/s speed=0.0146x elapsed=0:05:42.14    \n",
  "seconds": 343.8179819583893,
  "probe_out": {}
}